<svg id="img" viewBox="0 0 51.16 68.35" xmlns="http://www.w3.org/2000/svg"><g><path d="m24.13 24.91c.15.77.21-.45.17.5-.13-.09-.24-.23-.17-.5z"/><path d="m25.51 27.86c-.46-2.64.89-5.83 1.11-8.65.05-.33.38.18.47-.56.06-1.38.47-3.1 1.17-4.79s1.73-3.32 2.86-4.49l-.02.23c.41-.44.57-1.27 1.07-1.71.06.05-.06.23.12.19-.07-.3.76-.88.86-1.19.26-.09.36.08.67-.04l.15-.43c.25-.56.82-.89 1.47-1.12.65-.24 1.36-.37 2.03-.67-.06.07-.18.15-.06.18 1.07-.41 2.44-.5 3.75-.12 1.32.35 2.52 1.14 3.54 1.98-.14 0-.33.06-.29.24.29-.13.93.39 1.42.9-.02.42.97.79 1.3 1.59l-.09-.02c.59.36.33.86.89 1.12 0 .15 0 .3-.02.45.48.06.19.89.6 1.25l.07-.05c.31.39.22.7.43 1.09l-.03.06c.47.93.47 1.57.76 1.44-.12.42-.46-.9-.61-.25 1.46 3.07 1.83 6.66 1.75 10.05-.14.38-.18.63-.3.71.05.34-.05 1.27.09 1.6 0-.11-.18.2-.21.38-.17.6.26.71.02 1.37-.04-.28-.13-.38-.26-.31.15.6.03 1.37-.05 2.05-.03-.11-.03-.28-.13-.28.12.79-.33 1.32-.32 2l-.11-.28c-.5.96.29.39-.08 1.24 0-.23-.09-.17-.15-.23.13.92-.43 2.2-.6 3.04 0-.06-.06-.06-.06-.06-.28.89-.73 1.75-1.01 2.74-.23.3-.36-.29-.71.62.36.13-.58 1.57.05 1.23-.46.72-1.18 1.84-1.39 2.37.07-.39-.6.12-.27-.49l-.46.33c-.09-.14.32-.43.07-.39-.17.3-.56 1.24-.77 1.47-.17.65-.14 1.39-.7 2.28.17-.48-.5-.01-.35-.32l-.3 1.6c-.2.29-.28-.12-.5.35.1.04 0 .25-.03.42-.11.08-.85 1.2-1.22 1.08-.21.03.3-.49-.04-.27-.4.51-.34.59-.75 1.09l-.04-.02c-.32.28-.71 1.05-.25.83.2-.22-.24-.06.13-.32-.03.37-.49.97-.94 1.44.11-.2.02-.25 0-.38-.38.83-.95 1.57-1.57 2.33.11.13.04-.48.2-.52-1.04.72-1.62 2.04-2.62 2.49.1-.14.23.12.19.09-.46.39-.61.18-.84.51-.13-.09-.34.36-.61.66-.09.22-.13.01.13-.23-.33.47-1.91 2.1-3.06 2.72.08.06-.4.78-.64.95l-.05-.25c-.3.06-.78.62-.94.49-.33.61 1.79-1.68 1.24-.99-.29 0-.72 1.02-.76.66-.47.37-.78.93-1.36 1.1.15-.07.2-.55-.18-.24-.66.53-.13.23-.64.7l-.29.33c.11.2-.63.42-.23.44-.19-.08-.94.81-1.08.46l-.07-.3c-.29.23-.31.6-.47.87-.05 0-.17.01-.18-.04.21.4-.74.47-.9 1-.72.31-1.62 1.09-2.08 1.06-.41.44-.77.88-1.39 1.16.09-.11.24-.22.21-.32-.42.12-.45.28-.73.55.02-.1-.79.22-1.46.44-.63.47-.39.58-.43.77-.28-.07-.62 0-1.03 0-.75.01-1.64-.47-1.84-1.2.22.23.93.69.54.14-.09-.43-.33-.64-.63-.9-.26-.2-.57-.43-.71-.85l-.19.38c-.02-.45-.88-.98-.51-1.1-.26-.19-.41-.95-.67-.69-.48-1.38-1.86-2.98-1.68-4.06-.14-.16-.31-.64-.43-.47-.03.39.34.37.27.54-.09-.16-.2-.15-.25-.15-.12-.44-.25-.76.2-.51-.24-.98-1-.66-1.38-1.87.16 0 .17-.12 0-.45l-.52-.54c-.26-.78.13-.56.36-.67-.2-.38-.39-.88-.64-.99l.09-.6c-.07.44-.27-.28-.4-.45l.13.17c.07-.11-.17-.56-.29-.78-.12.11 0 .61.06.89-.18-.17-.28-.5-.5-.73.26 0-.09-.72-.18-1.06-.09-.39-.36-.35-.39-.46.12-.05-.19-.62.08-.39.08.11-.02.33.16.51 0-.28.22-.32-.11-.78-.25-.35-.42.26-.53-.53.12.17.23.18.36.3l-.12-.72-.22.04c.02-.11.06-.05.08-.11-.3-.13-.41-1.03-.71-1.1-.13-.34-.09-.78-.17-1.12l.04.06c0-.44-.24-.96-.49-1.26h.05c-.05-.22-.24-.74-.45-.98 0-.61.75-.42.31-.97-.17-.57-.64-.79-.71-.52-.15-1.07-.79-2.16-.71-3.2-.13-.13-.16-.02-.28-.31-.29-1.54-1.03-3.17-.88-4.48.19.42.22-.02.35-.06-.27-.32.11-.48-.26-.54-.19.08-.29.06-.28.51-.31-.89-.61-2.28-.53-2.82-.04.27-.14.09-.24-.1.33 0 .23-.68.01-1.17l-.21-.03.13-.37c-.1-.18-.45-.13-.37-.68.07-.04.14-.09.17-.19-.26-.5-.68-1.19-.63-1.8l.19-.53c-.08-.24-.33-.62-.32-.17-.02-1.02-.11-1.66.08-2.02-.89-1.6-1.3-4.12-1.43-6.16l.15.05c.09-.56-.28-.26-.21-.65.15.17.27-.44.47-.02.09-.79-.32-.99-.42-1.5-.2-.07.15.4-.1.32-.08-.08.1-1.1-.19-1.21.11-.2.33-.05.45.05l-.16-.48c.32-.59.65 1.31 1.05.69l-.06-.43c.29-.42.38 1.13.45.05-.16-.46-.58-.87-.71-.44-.08-.99-.71-.45-.67-1.54.17-.29.03.87.28.66.23-.5-.11-1.02-.03-1.47-.12.5-.41.07-.45-.27.17-.55.26.37.33-.41-.16-.14-.25-.87-.4-.25-.37-.31.15-.81-.1-1.27.29-.23.54.86.76.01-.28.12-.25-1.1-.67-.68.12-.35.33-.36.45-.08.21-.47-.29-1.28.25-1.36l-.23-.22c.12-.14.23-.35.42-.57.09-.43.02-1.49.4-1.33 0-.15.35-1.11-.04-.83-.38.56-.04.76-.51 1 .43-.35.24-.9.29-1.3h.17c.02-.24.25-.71.16-.91 0 .2.14.15.25 0l-.11-.32c.33-.9.46-.02.84-.85-.07.23-.11.46-.17.69.04-.15.35-.32.52-.72-.09-.25-.14-.67-.19-.89.25-.5.34-.05.48-.62l-.21.71c.01.13.53-.18.99-.7.22-.39.57-1.11-.07-.67.27-.27.75-.52.63-.21.58-.61-.26-.11.25-.68.33-.09 1.24-.45 1.84-.47-.19.2-.34.44-.49.66l.42-.23c-.4.55.36.05.2.48.29-.08.58-.32.84-.49-.5-.07-.34-.33-.04-.58s.72-.52.53-.7c.71-.18.96.07 1.19.26.24.2.43.28 1.16 0-.23-.13.5-.41-.4-.36.86.12.67-.41 1.67-.01-.77 0 .65.63-.43.63.1-.13-.55-.23-.72-.19.31.21-.12.42.67.57.48.06 1.12.27 1.1.03.07-.26-.74-.21-.35-.36 1.01.24.97.69 1.54.46-.58-.25-.64-.54-.57-.7.26.06.5.14.75.23l-.21.09c1.02.66.47-.12 1.47.53l.26.58c-.36.07-1.34-1-1.4-.48.62.38.95.32 1.44.81-.14-.06-.32-.16-.47-.21.21.16.06.79 1.04 1.13.48.23.21-.04.33-.16.88.71 1.23.84 1.74 1.35-.34.11.81.98.03.61-.07-.41-1.22-1.57-1.75-1.58.04.57-.62-.62-1.08-.43.69.55.38.84.31 1.12.17.16.4.24.53.31.24-.11.01-.32.17-.52.67.7 1.37 1.3 1.89 1.56.11.33-.14.4-.4.13.79.83 1.46 1.82 1.97 2.75-.04-.79.73.94.75.37-.23-.53-.28-1.1.05-.93.18.32-.15.09-.14.26.44.26.09.79.62.99-.65-.81-.52.09-.88.09.53.53-.21.09.17.7.52.53 1.08 1.25 1.51 1.94.2 1.04 1.12 2.33 1.46 3.18.03.5-.41.33-.29.83.21.56.2-.55.36.34l-.1-.06c.18.22.31 1.61.87 1.71l-.45-.15c.02.17.15.29.23.41-.12.04-.17.26-.33.03-.11.6.37 1.08.52 1.66l.12-.43c.43.95.37 1.67.63 2.62h-.22s.24.56.24.56c-.24-.1-.27.44-.06.72-.25-.47-.53-.93-.8-1.39.05-.44.35.4.51.1.16-.26-.11-1.14-.35-1.23.05.34.1.35.24.6-.28.18-.38-.34-.63-.54.05.17.01.44.12.46-.22-.31-.32-.65-.47-1.22.21.35.13-.26.25-.13-.27.02-.49-.5-.62-1.21.16-.59-.59-1.24-.8-2.04.38.22.73.56.99 1.02-.04-.55-.18-.56-.24-1.11-.29-.17-.63-.24-1-.83l.17-.11c-.33-.54-.6-.43-.87-1.17-.45-1.28-1.09-2.52-1.59-3.42l.16-.13c-.65-.29-1.13-1.56-1.72-2.09-.58-1.22-1.81-2.15-2.02-2.85-.83-.78-1.68-1.42-2.57-1.96s-1.82-.96-2.86-1.18l.42-.22c-.44.14-.22-.22-.63-.24.41.29-.58.23-.82.45-.47-.13-1.01 0-1.49.21-.47.23-.86.56-1.12.88l-.14-.15c-.44.76-1.33 1.24-1.97 2.18-.14.06-.41.15-.54.46.02.7-.13.98-.24 1.89-.22.62-.57 1.64-.79 2.28.06 2.53-.29 5.19.14 7.86l-.23.21c.65 2.56.68 5.81 1.34 8l-.44-.14c0 .72.4 1.57.65 1.34.01.72.54 1.7.3 2.22.07.73.36.84.54 1.42.15 1.46.3 1.99.67 3.32l-.05-.34c-.12-.13-.29-.1-.24.24.22.48.3 1.87.66 1.26.05 1.5 1 3.28.98 4.75.1-.15.21.19.34.32.32 1.24.42 2.61.91 3.54 0 .22-.3-.25-.18.26.13.28.17-.04.35.3.81 1.92.98 4.09 1.67 5.84 1.35 3.06 2.59 6.3 4.1 9.1h-.1c.42.4.62.99.84 1.55.24.55.48 1.07.94 1.29.04.27.45.85.19.78.34.29.6.82.9 1.38.09.17.11.22.13.26.02.05.05.09.08.13.07.08.17.12.27.04-.02-.02-.04 0-.09.02.03.06.08.1.13.12.16.05.31-.09.43-.18 0 0 .13-.1.24-.17l.33-.22c.23-.14.47-.28.73-.4-.09.11-.28.27-.26.37.53-.12.79-1.01 1.28-.78.24-.17.04-.31-.1-.2 2.53-1.47 4.9-3.49 7.22-5.4 1.88-1.09.6.55 1.72-.78.17-.02-.03-.2.05-.14.43-.51 1.14-.22 1.33-.71-.33-.1.13-.32.03-.46 1.13-.7 1.51-.67 2.14-1.53l.04.17c.64-1.12 1.82-1.92 2.21-2.98 4.69-4.72 8.35-9.98 10.62-15.84 2.4-5.75 3.15-12 2.16-18.09.06-.76.06-1.16-.04-1.56s-.23-.81-.57-1.54c.08.04.13.13.15 0-.34.03-.43-1.05-.78-1.07-.83-2.12-1.89-3.97-3.4-5.49.26.21.57.17.28-.12l-.45-.15v-.11c-.23-.15-.55-.22-.41.04-2.03-1.63-4.18-2.08-6.59-1.17-1.17.44-2.29 1.18-3.2 2.12-.93.96-1.7 2.14-2.29 3.44-.72 1.16-1.26 3.1-1.62 4.63-1.7 4.34-2.83 8.5-2.93 13.27 0 0-.81-.69-.78-2.69z"/><path d="m23.99 23.98c.14-.19.15-.75.43-.34-.14.08-.27.38-.43.34z"/><path d="m20.59 9.44c-.05 0-.06-.22-.06-.28.11.15.32.23.33.41-.11-.16-.16-.09-.27-.13z"/><path d="m18.47 6.13c.16-.04.75.58 1.05.97-.35-.33-.68-.65-1.05-.97z"/><path d="m16.3 2.92c-.18-.32-.07-.31.29 0-.03.08-.17 0-.29 0z"/><path d="m15.87 2.99c-.25-.21-.33-.37-.4-.54-.06.1.65.41.4.54z"/><path d="m7.31.29c-.24.06-.67.38-.95.32.14 0 .39-.16.61-.28.22-.1.4-.17.34-.04z"/><path d="m3.67 2.94c-.1.1-.16.12-.23.27-.22.15-.13-.12.01-.3l.22.02z"/><path d="m15.17 66.4-.28-.3.16-.03z"/><path d="m39.15 52.3c.2-.35.29-.1.35-.14-.23.27-.04-.22-.35.14z"/><path d="m47.43 39.19-.04.11-.26-.17z"/></g></svg>
