<svg id="img" viewBox="0 0 58.58 60.35" xmlns="http://www.w3.org/2000/svg"><g><path d="m50.99 53.82c.21.73.17-.46.21.46-.13-.07-.25-.2-.21-.46z"/><path d="m56.17 57.86c-1.1-.66-2.15-1.53-3.36-2.29-1.2-.76-2.54-1.41-3.86-1.56-.3-.05.2-.38-.5-.47-1.32-.06-2.91-.33-4.61-.51-1.7-.2-3.48-.37-5.06-.52l.18-.13c-.6-.06-1.3.38-1.93.37-.01-.08.19-.13.04-.22-.14.25-1.12.2-1.38.4-.25-.07-.25-.26-.57-.34l-.33.3c-.94.72-2.41.17-3.74.59.06-.07.19-.12.08-.18-2.15.55-4.9.53-7.35.49.1-.09.21-.26.07-.37-.14.27-.9.29-1.56.28-.26-.32-1.15.15-1.9-.12l.07-.06c-.61.23-.81-.3-1.33 0l-.32-.29c-.32.36-.77-.35-1.27-.24v.09c-.46.01-.64-.24-1.06-.26l-.03-.06c-.97-.11-1.45-.48-1.51-.16-.26-.33.94.12.51-.37-3.14-.43-6.29-1.61-8.99-3.35-.23-.31-.4-.48-.39-.62-.31-.12-.99-.67-1.32-.73.08.07-.05-.26-.16-.38-.35-.46-.7-.18-1.06-.74.24.12.38.11.4-.03-.56-.21-1.01-.79-1.45-1.28.1.05.22.16.29.08-.66-.4-.67-1.09-1.11-1.54l.27.12c-.23-.98-.5-.08-.72-.93.13.17.17.07.25.08-.64-.6-.91-1.92-1.12-2.71.03.04.08.02.08.02-.16-.88-.12-1.8-.17-2.78.12-.34.41.15.47-.77-.19 0-.17-.4-.16-.74.03-.33.04-.61-.22-.38.2-.8.77-1.94.86-2.48 0 .39.56-.18.35.44l.39-.37c.11.12-.23.44 0 .37.09-.3.36-1.21.56-1.43.08-.62 0-1.34.56-2.18-.17.46.49.03.35.32.08-.5.18-1.02.33-1.53.22-.26.26.14.52-.28-.09-.05.02-.24.07-.4.06-.03.3-.3.57-.52.28-.22.59-.4.76-.3.2.02-.37.41 0 .27.46-.4.43-.49.91-.86l.04.03c.36-.19.92-.78.44-.71-.25.14.21.13-.2.27.12-.34.71-.78 1.27-1.08-.16.16-.09.23-.11.36.59-.67 1.38-1.12 2.22-1.58-.05-.17-.21.43-.37.39 1.19-.23 2.25-1.16 3.32-1.04-.15.07-.14-.22-.12-.17.57-.11.6.15.95-.01.06.14.45-.14.83-.23.18-.14.11.06-.22.12.5-.24 2.66-.7 3.92-.46-.03-.1.78-.35 1.07-.33l-.12.23c.26.14.97.03 1 .23.32-.12-.28-.1-.84-.06-.57.05-1.1.12-.68.02.21.19 1.17-.33.98-.02.57.02 1.16-.19 1.68.09-.16-.05-.49.27-.04.3.81.05.24-.08.9-.07l.42-.04c.06-.22.71.15.46-.15.07.19 1.19.1 1.04.45l-.17.26c.34.05.62-.19.92-.25.04.04.12.11.09.16.15-.42.81.22 1.29 0 .68.33 1.8.53 2.05.9.58.04 1.12.06 1.69.36-.13 0-.3-.05-.37.03.34.26.47.18.84.24-.12.02.73.55.88.78.37 0 .22-.31.26-.46.12.28.34.29.48.27.16-.01.23-.07.56.28-.01.06-.25.12.1.39.33.38.47.35.52.26.07-.09.03-.24.41.04l-.65-.67c.24.23.3.2.34.18s.08-.02.42.33c-.03-.05 0-.05.04-.03.03 0-.03-.05-.05-.08-.06-.07-.15-.18-.48-.48.06.02-.01-.05-.07-.19-.12-.21-.31-.48-.36-.69-.08-.21-.04-.37.17-.52-.1-.12-.11-.39-.28-.32-.16.16.21.23.09.29-.04-.09-.14-.11-.2-.12.02-.1.01-.18.07-.2.02-.05.05-.08.1-.07.02 0 .05.02.09.04.03 0 .06 0 .1.02.02-.01.01-.16 0-.25-.02-.09-.05-.18-.08-.25-.07-.15-.17-.27-.27-.4-.22-.26-.41-.57-.38-1.21.15.05.2-.05.15-.42-.1-.23-.16-.46-.25-.7.08-.82.35-.45.6-.46-.05-.43.05-.93-.12-1.15l.37-.47c-.27.34-.11-.36-.12-.57l.02.2c.12-.06.14-.54.16-.79-.16.02-.32.5-.41.77-.07-.23.02-.56-.05-.87.21.14.3-.64.43-.96.15-.36-.1-.48-.06-.59.12.02.2-.6.28-.26 0 .14-.2.26-.15.5.16-.22.34-.14.36-.68 0-.41-.49-.05-.11-.72 0 .21.08.27.11.45l.34-.62-.2-.1c.08-.07.08 0 .12-.03-.16-.28.33-1.02.14-1.27.1-.35.44-.63.61-.92v.07c.28-.32.43-.85.47-1.22l.03.04c.12-.19.34-.68.36-.99.44-.41.82.26.91-.42.28-.49.14-.98-.11-.86.7-.78 1.1-1.98 2.01-2.5.03-.17-.08-.14.09-.41 1.07-1.1 2.15-2.56 3.44-2.95-.32.34.11.2.19.29.19-.38.48-.09.39-.45-.14-.14-.17-.25-.58-.06.68-.67 2.01-1.38 2.58-1.42-.29.02-.12-.12.05-.26.07.33.72.06 1.22-.18l.02-.21.4.09c.18-.12.13-.46.73-.39.04.07.09.14.2.17.53-.26 1.4-.59 2.06-.37.17.11.34.2.5.33.27.02.77-.07.3-.24.55.17.97.35 1.3.53.33.16.54.33.65.52.98.1 2.09.67 2.97 1.51.9.83 1.56 1.9 2 2.89h-.16c.1.58.36.17.42.59-.19-.12-.13.51-.45.16.14.79.59.88.79 1.38.21.03-.23-.38.03-.35.1.07.13 1.13.43 1.21-.08.22-.31.1-.45.02l.22.46c-.23.62-.84-1.2-1.14-.51.04.13.09.27.13.4-.22.43-.55-1-.45.02.22.4.68.75.76.32.2.95.76.37.81 1.44-.15.3-.09-.85-.32-.63-.19.51.19.99.11 1.44.1-.49.41-.08.45.25-.15.54-.27-.35-.31.41.16.13.26.84.4.24.37.3-.15.79.11 1.23-.29.22-.54-.83-.75-.02.28-.11.24 1.05.67.66-.11.32-.32.32-.45.07-.21.43.31 1.17-.22 1.24l.24.2c-.11.13-.21.32-.39.52-.07.39.12 1.32-.27 1.2.02.13-.18 1 .16.72.28-.51-.07-.66.36-.9-.37.33-.12.8-.09 1.13l-.16.02c.02.2-.1.62.03.77-.06-.16-.17-.11-.24.03l.19.24c-.05.78-.44.09-.53.84l-.06-.6c.01.13-.25.34-.26.7.18.18.37.49.51.65 0 .43-.28.13-.15.59l-.13-.59c-.05-.1-.43.28-.54.83 0 .37.17.98.41.45-.06.28-.28.63-.38.38-.07.64.24-.03.25.54-.19.19-.55.82-.85 1.19l-.22-.64-.09.37c-.17-.55-.27.19-.5-.15-.11.24-.08.57-.06.84.65-.63.45.98.93.87-.12 1.04-1.2.39-.77 1.6.15-.15.36.43.39-.24-.19.62.33.53-.02 1.23-.05-.59-.57.49-.64-.37.13.09.21-.42.2-.55-.23.22-.42-.16-.57.49-.05.4-.17.94.07.92.25.04.11-.61.3-.3-.1.8-.5.85-.14 1.27.08-.5.36-.57.53-.52l-.03.6-.14-.15c-.32.89.24.34 0 1.22l-.42.35c-.23-.27.41-1.27-.07-1.21-.15.58.04.82-.2 1.34-.01-.13.01-.3 0-.43-.06.2-.72.28-.53 1.18.05.46.14.15.31.19-.14.94-.03 1.25-.12 1.86-.31-.19-.23 1.05-.45.32.24-.27.5-1.61.26-2.01-.46.26.21-.72-.15-1.01-.17.75-.55.63-.83.7-.06.21 0 .43.02.56.22.14.27-.14.52-.1-.25.82-.26 1.66-.11 2.16-.17.26-.39.12-.36-.21-.13 1.01-.34 2.07-.56 3.01.49-.55-.08 1.07.32.7.17-.49.52-.88.65-.58-.08.31-.17-.04-.28.08.15.43-.45.57-.15 1.02-.01-.92-.46-.25-.75-.46.09.69-.22-.06-.3.6.09.69.11 1.51.12 2.25-.19.45-.25 1.03-.25 1.6.01.57.06 1.14.05 1.55-.18.43-.52.12-.6.59.01.55.38-.4.22.41l-.07-.08c.08.24-.23 1.51.28 1.73l-.39-.24c-.03.15.06.29.1.42-.12 0-.23.19-.32-.05-.24.52.11 1.07.15 1.61l.2-.37c.22.92.08 1.57.28 2.46h-.22s.2.52.2.52c-.23-.1-.31.42-.07.67-.28-.43-.49-.88-.74-1.33.08-.41.32.39.51.12.16-.23 0-1.06-.24-1.18.02.33.07.34.18.58-.29.14-.34-.35-.58-.57.03.17-.03.42.07.45-.2-.32-.26-.66-.3-1.22.14.37.18-.22.27-.08-.27-.02-.39-.56-.36-1.26.28-.51-.22-1.3-.15-2.12.28.33.5.75.62 1.23.13-.5-.01-.56.12-1.06-.2-.24-.54-.42-.63-1.09l.2-.03c-.08-.6-.38-.61-.29-1.38.18-1.3.29-2.64.46-3.62h.21c-.37-.62.07-1.86.02-2.62.38-1.22.29-2.74.75-3.32.29-2.21.56-4.15 1.17-6.37l.2.44c-.12-.45.23-.22.28-.63-.34.4-.17-.62-.28-.93.46-.94.52-2.28.52-3.2h.21c-.16-.97.4-1.95.72-3.05.11-.11.34-.27.39-.61-.19-.67-.1-.98-.12-1.9.13-.64.41-1.66.63-2.29-.04-1.23.04-2.43.02-3.61-.02-1.17-.16-2.36-.62-3.4l.18-.23c-.58-.99-1.15-2.05-1.88-2.91s-1.61-1.51-2.47-1.63l.3-.33c-.5-.33-1.28-.23-1.18.09-.52-.25-1.31.12-1.69-.18-.58.03-.66.28-1.1.48-1.15.21-1.57.46-2.51 1.13l.26-.13c.06-.14-.01-.3-.28-.17-.32.3-1.41.85-.76.97-1.2.52-2.07 2.1-3.14 2.81.17 0-.01.26-.03.42-.69.87-1.6 1.73-1.86 2.64-.15.12-.04-.36-.3.03-.1.26.14.09.04.42-.69 1.71-1.88 3.25-2.29 4.9-.3 1.46-.5 2.93-.51 4.36-.03.36.02.71.04 1.06 0 .35.07.69.13 1.02l.04.25c.02.09 0 .11.09.42l.46 1.07c.16.36.31.71.46 1.06.03.14.27.43.46.69l.59.77-.25-.19c.76.86 1.43 1.71 2.08 2.6.73.97 1.34 1.84 1.92 2.67-.83-.38-.84-.38-.97-.37-.09.02-.07.13.08.36-.11-.07-.22-.13-.32-.18-.18-.1-.37-.2-.54-.29-.35-.19-.62-.35-.66-.48-.39-.04-1.5-.62-2.57-1.17-1.1-.57-2.14-1.09-3.03-1.31.18.09.28.11.46.15-1.03-.59-1.86-.9-2.78-1.26-.34-.12-.68-.25-1.03-.38-.27-.1-.54-.22-.81-.37.13 0 .35.05.42-.03-.38-.34-1.19.02-1.28-.51-.26-.08-.26.16-.09.2-2.48-1.02-5.34-1.37-8.02-1.45-1.91-.38-.08-.81-1.63-.5-.13-.09-.09.18-.11.08-.59.15-.94-.51-1.35-.23.19.28-.27.18-.26.35-1.19-.09-1.48-.3-2.37.06l.04-.16c-1 .61-2.28.72-2.98 1.5-2.74 1.01-5.12 2.73-6.65 4.92-1.57 2.2-2.4 4.91-2.31 7.48-.03 2.57 1.18 4.86 3.08 6.65 1.93 1.78 4.47 3.09 7.22 4.15 1.19.81 1.32.83 2.86 1.06-.08.05-.17.04-.09.12.15-.29 1.07.23 1.29-.05 2.16.54 4.21.76 6.48.95-.36 0-.57.26-.14.27l.47-.17.07.1c.3-.03.63-.17.33-.29 2.87.06 5.66.02 8.6-.12 2.93-.12 5.93-.3 9-.3 1.44.14 3.57.16 5.2.43 2.34.68 4.47 1.64 6.43 2.91 1.95 1.27 3.73 2.89 5.16 5.04 0 0-.27-.04-.7-.27-.42-.23-.99-.62-1.72-1.27z"/><path d="m50.78 52.93c.13-.19.11-.72.41-.35-.14.08-.26.38-.41.35z"/><path d="m52.3 39.11s.09-.18.12-.22c0 .17.11.34 0 .47 0-.17-.07-.15-.13-.24z"/><path d="m52.95 35.66c.13.08.11.84.06 1.28-.03-.42-.05-.85-.06-1.28z"/><path d="m54.17 32.56c.18-.25.23-.16.15.21-.08.01-.09-.12-.15-.21z"/><path d="m53.9 32.27c.05-.27.16-.38.27-.49-.12-.02-.05.63-.27.49z"/><path d="m55.91 25.38c.03-.17 0-.56.19-.68-.15.15-.01.86-.19.68z"/><path d="m56.46 22.06c.03-.1.07-.14.06-.27.11-.18.17.05.14.22l-.2.06z"/><path d="m33.14 25.74s.05-.03.06-.05l.17.23-.24-.18z"/><path d="m8.27 24.65c-.3.25-.3 0-.37.01.3-.18-.03.21.37-.01z"/><path d="m.25 36.74.02-.11.29.08z"/></g></svg>
