<svg id="img" clip-rule="evenodd" fill-rule="evenodd" image-rendering="optimizeQuality" shape-rendering="geometricPrecision" text-rendering="geometricPrecision" viewBox="0 0 7525.38 7683.03" xmlns="http://www.w3.org/2000/svg"><path d="m6098.36 2235.88c45.81-46.36 100.37-98.68 40.47-188.84-49.25 33.93-95.4 65.72-154.81 106.58-9.96-153.11-19.24-294.55-28.62-437.79-125.99 2.37-106.76 85.73-109.85 144.78-4.37 85.13 3.62 170.83 4.81 256.28.18 8.63-9.36 17.44-14.25 25.85-30.96-13.57-59.23-26-114.59-50.27 23.2 81.88 39.3 138.69 56.49 199.54-62.42 10.95-120.01 21.06-187.05 32.83 1.9 35.03 3.52 65.44 5.17 96.4 56.28 13.05 101.77 23.68 144.48 33.61-14.52 58.83-27.42 111.37-40.32 163.99 9.55 4.69 19.26 9.46 28.89 14.12 38.6-30.64 77.09-61.27 129.71-102.99 7.46 48.65 13.3 83.63 18.21 118.86 12.9 95.46 24.4 191.09 38.5 286.34 6.11 41.72 14.97 85.63 88.27 57.31 0-155.76 0-316.58 0-492.67 62.22 30.41 100.05 48.85 137.97 67.36 6.51-5.84 13.15-11.63 19.66-17.49-21.91-46.93-43.91-93.86-68.73-146.93 44.68-13.25 85.53-25.17 121.35-35.75 36.95-115.74-84.4-71.18-115.77-131.13zm-2925.15-134.43c1.55-.77 2.84-1.25 4.29-1.97-.6 1.62-1.2 3.32-1.2 3.39-41.27-12.67-84.4-40.52-123.6-35.8-139.94 16.87-278.91 43.06-417.4 70.08-21.76 4.27-44.13 27.57-57.68 47.8-130.63 195.55-247.4 398.86-315.91 625.4-10.7 35.53-9.63 87.74 9.41 116.88 72.58 110.92 151.02 218.48 234.47 321.55 70.83 87.57 151.62 167.06 239.06 262.24-70.51 32.14-122.43 59.18-176.52 79.99-283.65 108.85-459.89 346.69-659.91 553.65-236.07 244.33-360.59 552.9-464.83 869.16-134.7 408.22-110.1 811.15 89.69 1190.33 207.3 393.55 492.67 722.2 887.37 944.13 143.66 80.81 291.06 146.08 457.42 168.81 279.51 38.3 557.21 19.93 834.85-14.3 36-4.44 69.78-27.35 105.29-42.04-76.42-158.03-113.79-175.04-258.45-131.31-46.08 13.9-93.01 34.9-139.69 35.05-262.67.85-521.81-42.04-751.67-167.13-284.97-155.09-528.35-370.82-736.3-619.94-217.46-260.62-329.25-572.16-386.41-902.81-14.34-82.51-17.61-173.5 1.55-254.03 108.58-455.92 257.58-885.99 637.95-1207.14 156.43-131.96 313.56-249.97 498.41-328.95 253.18-108.16 523.23-135.33 795.78-136.22 507.64-1.8 966.71 123.85 1344.49 488.73 280.03 270.52 458.12 580.42 495.84 976.61 52.97 553.5-78.47 1041.28-457.35 1453.72-79.59 86.57-170.88 162.17-261.04 246.87-65.92-53.57-118.01-96.06-156.93-127.86 107.61-107.01 217.01-193.06 297.64-300.61 153.26-204.31 217.81-448.04 239.39-698.38 29.56-342.18-12.4-675.33-163.32-990.41-130.66-272.27-356.53-451.48-588.43-627.62-119.41-90.59-250.29-142.04-399.26-157.01-210.57-21.06-415.75 5.19-616.2 66.66-92.04 28.22-179.46 71.85-268.93 108.5 2.67 7.14 5.49 14.22 8.09 21.33 363.14-132.55 725.5-220.27 1093.22 8.96-15.99 19.91-23.23 33.53-34.3 41.62-311.14 226.01-502.48 531.99-606.22 898.5-144.41 510.44-111.15 1007.43 104.34 1492.24 35.93 80.91 69.46 162.97 105.88 248.69-21.48 9.81-37.13 20.53-54.14 24.03-321.3 64.19-623.41 15.59-893.78-172.42-332.22-230.83-541-545.59-620.34-945.73-54.31-273.72-63.12-543.44 7.84-816.89 51-196.25 155.08-360.59 265.98-524.23 23.75-35.15 38.45-76.59 57.28-115.14-9.23-5.41-18.54-10.78-27.69-16.17-96.03 50.55-165.61 130.56-227.81 218.63-142.71 202.06-221.85 426.41-248.62 672.78-52.29 480.57 46.48 924.17 310.99 1329.27 146.08 223.7 367.95 350.69 597.51 470.29 199.49 103.86 409.04 129.19 625.48 92.09 92.84-15.94 180.68-60.48 272.55-92.56 19.19 16.06 39.72 27.37 52.44 44.56 219.08 297.62 518.37 489.2 855.21 619.22 164.96 63.72 347.09 81.16 517.8 131.41 300.66 88.44 603.9 74.6 906.88 30.14 208.17-30.51 394.35-122.2 573.38-232.9 235.87-145.6 430.97-334.62 567.72-570.41 262.67-453.03 404.85-939.94 363.51-1472.25-33.53-432.62-152.76-834.5-411.74-1185.29-294.2-398.51-713.65-575.43-1191.3-605.57-368.9-23.33-740.72-13.07-1102.85 89.87-53.02 15.17-125.75 18.96-170.95-5.66-332.55-180.86-680.57-296.72-1063.74-286.84-13.32.4-26.92-7.01-45.48-12.1 4.14-18.41 4.89-33.11 10.58-45.66 96.43-214.06 184.2-431.4 208.53-667.12 5.24-51.1-.87-118.91-30.79-155.26-100.47-123.05-212.72-236.84-323.27-351.38-79.24-82.03-134.77-91.84-219.78-48 .7-1.85 1.3-3.62 1.3-3.62l-5.59 5.59zm94.36 156.08c128.34 125.32 254.68 227.74 316.23 397.41-66.94 38.12-113.62 64.82-152.74 87.02-79.34-115.69-151.79-221.42-230.36-335.94 17.89-39.62 38.35-85.1 66.86-148.5zm-455.87-65.52c111.65-34.26 227.94-53.27 367-82.96-12.28 71.85-21.9 128.29-30.41 178.69-125.67 32.81-252.36 5.86-332.9 142.09-24.4-56.94-53.89-95.66-53.89-134.38-.17-35.85 24.15-95.46 50.2-103.44zm-184.42 73.05c236.59 212.64 101.34 409.74 36.87 625.65-91.64-44.13-175.62-84.58-276.96-133.33 80.59-165.19 158.33-324.64 240.09-492.33zm303.03 1189.58c-186.84-145.06-361.56-302.59-504.72-528.13 109.93 18.51 198.42 33.38 282.4 47.53 87.97 154.89 171.6 302.09 255.16 449.21-11 10.45-22 20.93-32.83 31.39zm101.17-115.94c-62.15-117.24-131.41-230.71-203.19-355.25 142.93-30.94 276.09-59.78 417.55-90.42-63.69-96.23-63.69-96.23-422.89-23.73-52.87-142.16 51.84-270.08 31.39-407.95 83.11-19.58 158.15-37.2 241.68-56.81 46.75 78.09 96.95 155.33 140.36 236.17 40.67 75.97 74.1 155.84 113.79 241.01-48.63 161.55-100.05 331.68-153.42 508.02-68.93 42.36-122.4 30.14-165.29-51.05zm304.11 25.65c-6.96-2.02-14.02-4.09-20.98-6.14 36.8-160.17 73.75-320.35 117.24-509.54 31.81-20.89 88.62-58.23 145.53-95.58 8.86 6.49 17.44 12.97 26.29 19.49-89.39 197.2-178.69 394.47-268.08 591.77zm3707.48 3289.4c-142.69 215.66-313.39 407.15-537.98 542.65-267.93 161.6-556.89 282.28-867.68 300.76-196.08 11.65-397.11-44.31-594.54-77.97-501.1-85.55-896.05-363.46-1218.57-734.55-205.83-236.89-324.96-533.79-363.39-851.62-54.84-453.01 14.77-884.15 256.13-1277.98 110.38-180.03 268.43-314.63 444.9-441.2 432.1 353.75 697.33 786.6 672.33 1356.54-17.81 403.21-225.39 712.43-532.56 976.39-238.62-245.93-397.37-513.43-429.43-853.29-31.53-333.8 103.74-619.89 250.89-920.6-96.26 8.16-135.45 65.19-160.22 115.14-75.55 152.22-160.65 304.88-202.84 467.52-104.01 401.18-16.84 781.41 216.08 1115.21 174.5 249.77 407.6 446.69 657.36 627.45 279.18 201.99 602 227.93 919.01 270.57 181.28 24.45 365.98-31.76 546.74-118.01-37.05-32.53-63.94-56.28-84.83-74.65-330.65 1.94-655.82 22.2-965.94-91.07-116.71-42.66-223.47-112.89-358.07-182.65 69.78-50.87 113.44-89.05 162.79-117.41 315.96-182.78 468.27-478.38 561.53-813.47 118.43-425.78 124.8-851.74-11.7-1275.78-92.14-285.72-242.98-532.04-481.42-720.18-13.67-10.83-23.13-27.22-51.04-60.95 379.38-60.13 735.05-122.15 1094.52-54.66 177.39 33.26 358.07 76.54 521.54 149.95 258.3 115.91 462.08 301.46 604.84 554.89 141.16 250.14 234.67 513.63 271.37 796.51 65.32 502.78-40.14 969.23-319.82 1392.46zm-263.54-1996.11c-172-220.43-389.28-387.61-643.86-502.75-197.52-89.29-400.71-157.1-624.38-110.65-68.23 14.17-94.88 47.18-76.92 131.11 58.81-1.8 115.69-3.57 172.6-5.34l-5.94-4.29s4.57 1.82 4.82 2.02c29.04 7.29 57.51 15.62 86.55 21.16 261.04 49.55 495.17 164.59 696.81 330.7 590.42 486.61 647.23 1259.81 300.41 1879.35-92.31 164.87-205.68 318.03-311.31 479.53 14.87 24.92 29.14 48.65 42.98 71.55 146.88-67.16 273.49-170.28 338.74-276.04 136.05-220.72 233.17-459.11 278.13-712.97 64.55-363.76 12.72-719.51-122.48-1061.64-33.7-85.45-79.76-169.5-136.15-241.73zm-5042.41-2536.56c65.09 32.66 133.01 60.6 201.42 85.58 67.34 24.62 144.9 55.91 218.35 49.47 18.84-1.65 25.45-22 13.5-35.55-45.46-51.7-117.36-81.78-178.61-109.08-71.13-31.61-144.43-60.38-218.88-83.23-54.74-16.76-86.12 67.46-35.78 92.81zm762.7-482.69c34.75 75.55 72.95 187.12 146.87 234.3 10.7 6.79 28.79-.47 30.51-13.5 11.1-85.42-46.41-183.03-81.38-257.25-42.81-90.72-78.32-194.21-138.27-275.22-28.79-38.94-87.92-12.65-76.5 35.08 22.9 95.83 77.79 187.44 118.76 276.59zm782.66 13.4c38.32-43.96 57.06-100.27 78.64-153.76 23.38-57.71 43.31-115.34 49.85-177.47 5.66-53.19-69.88-75.59-83.28-20.18-25.2 104.09-113.54 238.34-71.85 345.27 4.12 10.53 18.39 15.72 26.65 6.14zm-1623.5 1066.76c-57.38 3.57-54.72 89.19 2.74 89.14 46.16-.05 289.78 17.74 287.59-53.47-2.17-71.25-244.28-38.42-290.33-35.68zm1995.56-611.93c43.16-19.46 84.6-37.17 123-65.54 52.44-38.72 98.35-84.45 148.2-126.02 40.32-33.63-14.7-96.68-57.26-69.61-96.53 61.32-175.42 137.34-236.97 232.87-8.86 13.8 7.31 35.38 23.03 28.29zm-407.84-309.05c2.6-22.3 14.79-40.69 12.4-63.69-.87-7.51-8.61-14.22-16.27-12.75-31.61 6.19-52.94 26.72-63.77 56.81-18.21 50.4 61.8 69.71 67.64 19.63zm777.02 39.15c23.38-18.34 34.3-35.05 39.97-64.07 1.97-9.88-3.97-19.81-12.9-24.08-19.66-9.33-55.51 16.69-70.73 26.7-40.92 26.82 5.51 91.59 43.66 61.45zm406.05-1471.81c-44.54 13.32-68.34 20.41-94.14 28.12-11-81.76-21.03-157.26-31.36-232.78-11.18 0-22.36 0-33.43 0-81.06 72.08-24.25 187.87-67.91 273.72-25.87-22.08-47.11-40.17-85.08-72.75v161.42c-79.77-.4-123.03 31.24-115.97 119.48 45.21 9.88 91.22 19.93 135.9 29.64-5.59 62.57-80.63 102.42-33.53 185.15 35.26-33.08 64.75-60.85 105.56-99.27 6.51 91.07 11.95 173.57 18.81 255.96 4.49 52.97 21.58 91.64 97.83 65.52 0-76.59 0-152.66 0-227.39 38.15-5.34 65.24-9.13 104.09-14.55-31.98-61.7-58.81-113.24-84.68-163.09 58.38-55.01 181.81 5.29 188.34-132.01-53.57-13.72-105.74-27.09-158.75-40.67 17.86-44.78 33.08-82.91 54.32-136.5zm-3371.12 2987.42c-49.25 30.59-87.47 54.37-133.48 83.01-10.8-139.34-20.56-263.91-30.24-388.41-15.92-.3-31.84-.68-47.78-1-14.39 95.38-28.79 190.79-46.03 305.1-34.13-27.97-57.81-47.33-81.49-66.74-8.33 2.52-16.57 5.11-24.92 7.61 5.59 49.92 11.18 99.82 16.69 149.49-193.06 33.11-193.06 33.11-216.61 128.34 101.59 7.56 200.02 14.87 304.53 22.65-44.13 84.4-81.61 156.03-119.13 227.76 9.23 6.51 18.36 13 27.54 19.49 36.33-26.2 72.6-52.32 111.87-80.58 36.4 74.77-15.09 177.54 94.76 234.9 7.39-105.51 13.8-198.07 21.41-306.97 73.35 52.94 128.14 92.49 182.95 131.98 6.71-6.89 13.4-13.8 20.06-20.66-45.03-66.07-89.99-132.08-139.42-204.58 78.14-25.22 162.89 6.41 205.03-93.78-48.93-19.66-93.93-37.67-140.91-56.53-1.4-25.7-2.82-52.52-4.84-91.07zm3867.58-1375.43c-41.37 0-74.77 33.48-74.77 74.82 0 41.27 33.41 74.77 74.77 74.77 41.34 0 74.77-33.51 74.77-74.77 0-41.34-33.43-74.82-74.77-74.82zm-1215.38-1976.9c-51.74 0-93.51 41.81-93.51 93.48 0 51.55 41.76 93.41 93.51 93.41 51.47 0 93.44-41.86 93.44-93.41 0-51.67-41.97-93.48-93.44-93.48zm-3617.31 4378.89c-51.72 0-93.53 41.81-93.53 93.48 0 51.57 41.81 93.46 93.53 93.46 51.57 0 93.46-41.89 93.46-93.46 0-51.67-41.89-93.48-93.46-93.48zm5334.54-1600.87c-64.54 0-116.96 52.29-116.96 116.81 0 64.49 52.42 116.86 116.96 116.86 64.57 0 116.84-52.37 116.84-116.86 0-64.52-52.27-116.81-116.84-116.81zm1156.5-841.09c-48.47 0-87.75 39.2-87.75 87.6s39.27 87.62 87.75 87.62c48.4 0 87.6-39.22 87.6-87.62s-39.19-87.6-87.6-87.6zm-5853.76 3082.35c-52.69-38.25-122.3-33.96-176.32-2.37-5.11-10.23-20.61-14.75-29.97-5.42-127.69 126.62 72.03 362.06 217.68 249.44 74.35-57.56 60.8-189.14-11.4-241.66zm4693.5-3824.02c-57.58-11.48-121.38 28.79-169.83 54.19-12.9 6.79-13.25 19.58-7.16 28.97-15.2.55-29.82 4.34-42.54 17.57-28.79 30.04-26.65 94.63-20.88 131.86 14.27 93.21 97.55 140.74 185.82 108.68 89.32-32.56 138.47-130.38 136.67-220.85-1.2-58.28-18.31-107.71-82.08-120.4zm-3884.34 858.7c19.69 13.75 47.03 20.81 70.6 15.07 9.86-2.35 20.63-3.17 29.44-8.68 5.24-3.34 9.38-7.73 12.37-13.17-6.48 6.69-7.33 8.08-2.57 4.12 11.25-8.61 15.17-25.3 3.57-35.8-1.42-1.12-2.67-2.49-3.92-3.79-12.1-18.56-35.35-25.67-51.22-38.22-60.13-47.63-121.2 52.15-58.28 80.49zm3890.78-724.62c-4.97 49.2-38.15 94.41-80.71 118.86-31.01 17.79-65.49 14.32-77.09-22.03-8.08-25.52-7.04-55.83-6.36-82.78 1.47-.38 2.6-.67 5.42-1.62 13.42-4.27 25.97-9.38 39.79-12.85 19.51-4.92 19.61-34.53 0-39.37-8.33-2.07-16.84-4.52-25.42-6.66 30.94-14.79 62.3-29.61 96.53-34.13 55.94-7.43 51.65 42.29 47.85 80.59zm-4752.15 3868.03c-27.89 25.45-74.17-18.31-90.99-37.13-17.44-19.63-29.22-45.38-34.23-72 1.49-.9 2.99-1.37 4.47-2.62 33.2-29.09 79.96-38.07 118.71-14.89 43.81 26.12 34.58 97.03 2.05 126.64z" fill-rule="nonzero"/></svg>
