<svg id="img" fill="currentColor" viewBox="0 0 404.47 414.59" xmlns="http://www.w3.org/2000/svg"><path d="m192.67 80.16c-1.58 5.81-2.22 11.8-3.5 17.67-2.21 10.19-3.88 20.5-6.67 30.57-.19.68-.39 1.36-.64 2.02-.52 1.35-.71 2.65-.39 4.13.38 1.78.04 3.51-1.39 4.88-.5.48-.81 1.16-1.25 1.71-.21.26-.55.43-.9.7-.38-.29-1.02-.51-1.14-.9-.46-1.48-1.53-2.18-2.76-3-6.04-4.04-12.18-7.89-18.29-11.81-2.08-1.33-3.95-2.99-5.89-4.54-4.14-3.32-8.11-6.86-12.52-9.84-1.61-1.09-3.2-2.22-4.84-3.26-4.8-3.01-9.63-5.98-14.43-8.98-5.42-3.39-10.35-7.44-15.35-11.4-4.86-3.85-9.68-7.74-14.52-11.6-3.46-2.76-6.93-5.52-10.41-8.24-.83-.65-1.76-1.17-2.66-1.73-.06-.03-.28.12-.36.23-.09.12-.13.31-.13.46 0 .17.03.37.13.5 3.5 4.88 6.9 9.83 10.75 14.47 2.82 3.4 5.45 6.99 7.91 10.66 1.76 2.64 3.2 5.51 4.61 8.36 1.64 3.33 3.25 6.67 5.36 9.75.7 1.01 1.24 2.15 1.74 3.28.86 1.95 1.96 3.76 3.01 5.6 1.58 2.76 3.14 5.57 4.3 8.52.85 2.15 1.74 4.24 2.95 6.21.37.6.76 1.23.93 1.91 1.09 4.35 3.71 7.95 5.61 11.91 3.6 7.49 7.58 14.82 10.46 22.65.79 2.15 1.42 4.37 2.12 6.55.21.65 1.06 1.16 1.67.98.68-.19 1.4-.31 2-.64 2.66-1.48 5.49-2.44 8.42-3.18 1.37-.34 2.65-1 4.02-1.34 2.58-.64 5.21-1 7.87-1.18 2.47-.17 4.92-.59 7.38-.86 1.56-.17 2.62-1.02 3.34-2.33.85-1.54 1.67-3.11 2.38-4.72.27-.61.24-1.38.26-2.08.03-1.24-.05-2.48.02-3.71.05-.88.03-1.89.45-2.6 1.65-2.78 2.03-5.97 3.17-8.91.11-.28.48-.48.77-.67.13-.09.37-.14.51-.08.12.04.25.26.25.4.02.52.12 1.08-.04 1.54-.45 1.33-1.18 2.59-1.49 3.95-.82 3.61-1.68 7.24-2.14 10.91-.54 4.31-2.11 8.16-4.25 11.86-.49.84-1.09 1.2-2.06 1.35-.84.12-1.67.56-2.4 1.03-2.14 1.39-4.49 2.14-7 2.22-2.17.07-4.17.66-6.2 1.31-4.22 1.34-8.45 2.63-12.44 4.59-1.42.7-2.98 1.11-4.47 1.67-2.65.99-5.3 1.99-7.94 3-2.65 1-5.29 1.97-8.09 2.54-4.33.89-8.62 2-12.91 3.09-2.58.65-5.08 1.53-7.47 2.72-1.74.87-3.5 1.71-5.28 2.51-2.26 1.02-4.61 1.73-7.04 2.31-5 1.19-10 2.27-15.09 2.99-2.45.35-4.88.84-7.31 1.31-2.8.54-5.46 1.43-7.91 2.97-1.64 1.04-3.38 1.92-5.11 2.83-2.52 1.32-5.18 2.24-7.98 2.81-2.77.55-5.58 1.03-8.18 2.22-.11.05-.23.36-.18.44.15.25.38.63.59.64 2.64.12 5.29.14 7.93.27 2.48.13 4.94.14 7.42-.13 2.63-.28 5.28-.16 7.88.59 3.24.94 6.6 1.22 9.94 1.68 6.83.94 13.74 1.27 20.52 2.68 1.38.29 2.8.38 4.21.5 3.52.31 7.07.4 10.55 1.15 1.2.26 2.47.15 3.7.26 2.29.19 4.58.43 6.87.61 1.59.13 3.18.27 4.77.28 5.32.04 10.58.6 15.84 1.41 3.37.52 6.53 1.44 9.56 2.94.79.39 1.63.68 2.46.97 1.67.58 3.33 1.2 5.02 1.69 1.86.54 3.62 1.43 5.6 1.55 4.33.26 8.29 1.68 12.03 3.82.61.35 1.27.59 1.96.91 1.52 3.03 2.51 6.23 3.55 9.42.44 1.35.78 2.74 1.37 4.01 1.06 2.28 1.81 4.61 1.75 7.15-.03 1.3.61 2.39 1.15 3.5 1.09 2.22 2.23 4.4 3.33 6.54-.9 1.33-1.12 2.5-.72 4.05 1.26 4.79 2.15 9.66 2.59 14.61.42 4.77 1.26 9.45 2.92 13.98 1.46 3.99 2.74 8.04 4.09 12.07 1.07 3.19 2.21 6.34 3.59 9.42 1.3 2.9 2.41 5.89 3.21 8.99 1.23 4.8 2.71 9.53 3.9 14.34.59 2.39.81 4.88 1.12 7.34.17 1.4.18 2.83.25 4.24.14 2.87.8 5.63 2.1 8.17 1.78 3.5 3.21 7.09 3.9 10.96.09.51.38.98.6 1.46.06.12.22.19.34.29 1.02-.56 1.45-1.55 1.68-2.59.42-1.9.74-3.82 1.09-5.74.61-3.3 1.21-6.61 1.84-9.91.26-1.39.7-2.76.84-4.16.28-2.68.98-5.22 2.13-7.64.93-1.97 1.32-4.05 1.32-6.19 0-3.2.15-6.37.92-9.49.08-.34.15-.7.14-1.05-.2-5.85 1.3-11.59 1.17-17.45-.04-1.57.26-3.18.59-4.73 2.56-11.94 5.16-23.87 7.77-35.79 1.06-4.84 2.39-9.6 4.01-14.29 1.15-3.34 2.13-6.73 3.55-9.98 1.21-2.77 2.48-5.49 4.19-7.97 1.15-1.66 1.8-3.43 1.92-5.43.03-.53.09-1.06.15-1.59.27-2.59 1.82-4.36 4.13-5.07 5.89-1.81 11.53-4.63 17.91-4.6 1.2 0 2.42-.46 3.6-.79 3.92-1.11 7.81-2.3 11.83-2.99 3.14-.54 6.29-1.07 9.46-1.36 2.49-.23 4.9-.78 7.22-1.6 3.69-1.31 7.51-2.02 11.34-2.72 1.74-.32 3.52-.62 5.14-1.27 2.15-.87 4.43-1.2 6.62-1.89 2.66-.84 7.76-.99 10.52-.76 1.78.15 3.52.12 5.29-.02 4.06-.31 8.13-.4 12.15-1.15 1.56-.29 3.15-.45 4.68-.87 1.54-.41 3.11.12 4.68-.57 1.4-.62 3.08-.64 4.64-.88.69-.11 1.4-.17 2.09-.14.25 0 .5.32.71.54.03.03-.13.38-.26.42-2.66.92-5.25 2.14-8.17 2.06-.52-.01-1.05.13-1.56.29-8.59 2.63-12.94 3.16-21.38 3.21-1.42 0-2.84.1-4.25 0-3.24-.23-6.31.49-9.33 1.54-4.52 1.56-9.07 2.99-13.71 4.16-1.54.39-3.03.99-4.56 1.43-2.89.83-5.79 1.63-8.69 2.41-1.65.44-1.82.86-1.17 2.67.36 1.01.8 1.93 1.47 2.79 2.28 2.92 4.59 5.83 6.56 8.99.93 1.49 2.2 2.76 3.25 4.18 5.16 6.96 10.04 14.14 15.74 20.7.35.4.64.85.96 1.27 1.8 2.4 3.29 5 5.21 7.33 1.79 2.17 3.08 4.74 4.62 7.12.67 1.04 1.32 2.11 2.14 3.02 2.85 3.17 4.82 6.97 7.59 10.19.11.13.23.28.3.43 1.92 4.43 5.18 8 7.73 12.03.37.58.9 1.08 1.45 1.5.56.43 1.22.76 1.38 1.52.37 1.85 1.96 2.91 2.84 4.43.53.91 1.3 1.67 1.87 2.55.75 1.19 1.3 2.52 2.14 3.63.73.98 1.75 1.73 2.64 2.6.63.62 1.33 1.2 1.85 1.91 2.43 3.31 5.37 6.1 8.63 8.57 1.28.97 1.51 2.3 1.34 3.79-.1.85-1.26 1.53-1.99 1.09-.91-.54-1.83-1.08-2.64-1.75-1.93-1.58-4.07-2.78-6.27-3.95-4.7-2.49-9.61-4.45-14.6-6.22-6.51-2.32-12.83-5.08-19.14-7.9-8.41-3.75-16.67-7.8-24.97-11.79-3.99-1.92-8.04-3.69-12.07-5.52-5.16-2.34-10.24-4.82-15.22-7.54-4.03-2.2-8.2-4.12-12.34-6.09-5.76-2.73-11.48-5.54-16.94-8.84-3.03-1.83-5.91-3.86-8.56-6.4-.4.34-.98.58-1.12.98-.46 1.34-.79 2.72-1.12 4.1-1.03 4.3-1.95 8.63-3.05 12.91-1.73 6.69-2.98 13.47-4.15 20.28-.12.7-.24 1.4-.28 2.11-.3 5.83-1.18 11.63-1.13 17.48.01 1.77-.13 3.54-.28 5.3-.21 2.47-.55 4.93-.73 7.4-.21 2.84-.68 5.67-1.63 8.31-1.15 3.19-1.75 6.49-2.47 9.77-.95 4.32-1.66 8.69-2.56 13.02-.51 2.42-1.03 4.86-1.84 7.19-2.73 7.82-3.48 15.88-3.16 24.08.09 2.3.18 4.6.22 6.9.02 1.19-.79 1.86-2.1 1.86-.35 0-.71 0-1.06-.06-1.15-.17-1.98-.76-2.28-1.91-.27-1.03-.45-2.08-.66-3.12-1.2-5.9-2.46-11.79-2.62-17.84-.04-1.6-.36-3.15-.85-4.68-.59-1.85-1.05-3.75-1.48-5.65-.83-3.62-1.79-7.16-3.51-10.52-1.71-3.35-2.15-7.1-2.19-10.84-.08-7.14-1.34-14.04-3.48-20.84-1.11-3.55-2.11-7.14-3.62-10.53-1.95-4.38-3.43-8.9-4.68-13.52-.83-3.07-1.96-6.07-3.19-9-1.38-3.3-2.35-6.69-2.82-10.2-.38-2.8-.82-5.65-.69-8.45.18-3.67-1.12-6.96-2-10.37-.07-.28-1.03-.64-1.36-.48-1.75.83-3.49 1.71-5.12 2.75-5.23 3.33-10.63 6.36-16.1 9.28-2.49 1.33-5 2.63-7.1 4.61-.88.82-2.09 1.32-3.19 1.88-4.9 2.5-9.51 5.45-14.11 8.47-3.69 2.42-7.23 5.09-11.22 7.06-1.1.54-2.03 1.42-3.05 2.12-1.76 1.2-3.63 2.17-5.71 2.61.4-.51.82-.99 1.16-1.51.37-.56.37-1.17.08-1.76 0 .01.18.19.18.19v-.3c-1.1.84-2.21 1.67-3.3 2.5.43-.05.48.03.17.21-.02-.13-.04-.25-.05-.38.69.2 1.46.26 1.83 1.04.11.82-.49 1.23-1.01 1.66-1.56 1.31-3.55 2.04-4.86 3.71-.42.53-1.25.49-1.95.36l.07.11c-.27-.94-.06-1.99-.69-2.84 1.65.58 2.97.24 3.83-1.37.44-.29.47-.4.1-.3-.02 0 .02.28.04.43-.82-.33-1.53-.06-2.22.39-.53.34-1.07.66-1.59 1.01-.57 1.27-2.03 1.59-2.8 2.66 0 0 .11-.1.11-.1-.76.76-1.52 1.52-2.28 2.28 0 0 .21-.15.21-.15-.76.07-1.11.54-1.24 1.24 0 0 .17-.19.17-.19-1.14.4-2.01 1.07-2.31 2.31l.17-.2c-.65.17-1.41.19-1.94.54-1.43.96-2.67 2.22-4.16 3.06-1.52.86-2.3 2.54-4.05 3.17-1.17.42-1.6 1.73-1.73 2.99l.21-.16c-2.19.17-3.38 1.65-4.43 3.34l.17-.14c-.6.23-1.06.59-1.23 1.24l.19-.14c-.66.18-1.4.23-1.97.57-.9.53-1.6 1.4-2.52 1.85-3.78 1.86-7.34 4.05-10.57 6.77-.67.56-1.83-.05-1.95-.95-.19-1.45 0-2.79 1.05-3.9 0 0-.12-.11-.12-.11.56 1.49.85 1.7 1.63.88 1.15-1.22 2.72-1.59 4.05-2.43 4.2-2.63 8.14-5.63 12.09-8.61 1.98-1.49 3.92-3.01 5.9-4.5.7-.53 1.41-.99 1.96-1.73.51-.68 1.23-1.3 1.99-1.69 1.44-.74 2.58-1.78 3.75-2.88 1.41-1.33 3.06-2.38 4.59-3.58 2.64-2.07 5.25-4.17 7.91-6.23 1.12-.87 2.27-1.7 3.47-2.44 3.9-2.42 7.87-4.75 11.75-7.21 5.08-3.22 10.11-6.54 15.15-9.81.59-.39 1.14-.86 1.76-1.18 4.75-2.41 9.01-5.59 13.4-8.58 2.33-1.59 4.84-2.92 7.31-4.3 4.94-2.76 9.91-5.47 14.86-8.21.62-.34 1.22-.73 1.78-1.15.59-.45.93-1.09.86-1.83-.12-1.23-.11-2.54-.55-3.66-.92-2.33-1.5-4.7-1.86-7.16-.12-.84-.49-1.77-1.05-2.39-1.34-1.53-1.91-3.34-2.44-5.24-.51-1.87-1-3.77-2.44-5.54-1.28-.47-2.78-.98-4.24-1.59-1.5-.62-2.92-.88-4.62-.56-2.46.47-4.95-.18-7.27-1.04-2.02-.75-4.04-1.3-6.18-1.37-2.17-.08-4.16-.84-6.19-1.45-4.58-1.39-9.2-2.56-13.96-3.1-4.57-.52-9.13-.95-13.67-1.77-3.12-.56-6.32-.74-9.5-.89-7.26-.35-14.43-1.34-21.61-2.38-5.25-.76-10.54-1.23-15.81-1.8-2.81-.31-5.63-.49-8.39-1.24-1.88-.51-3.84-.48-5.8-.44-2.65.05-5.3-.1-7.95-.18-.88-.03-1.79-.25-2.64-.12-3.03.47-6 .14-8.96-.47-.86-.18-1.76-.31-2.63-.28-4.26.13-8.48-.12-12.7-.67-.88-.11-1.78-.12-2.63-.35-3.58-1.01-7.01-2.44-10.39-3.99-1.1-.51-1.26-1.32-1.05-2.65.32-2.02 1.54-3.19 3.37-3.68 2.03-.54 4.04-1.07 6.24-.36 2.02.65 4.18.58 6.32.32 1.4-.17 2.83-.24 4.24-.22 1.97.04 3.84-.33 5.73-.88 4.93-1.43 9.87-2.8 14.86-4 3.67-.88 7.09-2.27 10.21-4.32 3.48-2.27 7.28-3.61 11.31-4.39 4.34-.84 8.73-1.44 13.05-2.4 5.52-1.23 11.01-2.48 16.11-5.17 5.02-2.65 10.35-4.54 15.99-5.56 3.48-.63 6.89-1.64 10.33-2.46 2.07-.49 4.07-1.16 6-2.11 1.58-.78 3.23-1.46 4.91-2 4.3-1.38 4.37-1.17 2.37-5.24-2.9-5.88-5.94-11.67-9.12-17.39-1.89-3.4-3.55-6.93-5.4-10.35-3.8-7.01-7.03-14.29-10.63-21.4-2.4-4.73-5.03-9.35-7.55-14.02-1.09-2.02-2.26-4.01-3.24-6.09-2.87-6.1-6.36-11.84-10.07-17.44-1.85-2.8-3.88-5.49-5.83-8.23-.21-.29-.45-.55-.63-.85-1.17-1.97-2.28-3.98-3.51-5.92-1.22-1.94-2.58-3.8-3.82-5.74-.47-.74-.96-1.54-1.15-2.38-.33-1.46-1.11-2.55-2.14-3.58-.94-.94-1.15-2.15-1-3.44.06-.56 1.04-1.29 1.55-1.11.49.17 1.02.31 1.45.59 2.95 1.95 5.9 3.91 8.82 5.91 1.02.7 2.02 1.44 2.95 2.24 2.01 1.73 4.11 3.32 6.36 4.75 2.53 1.61 4.87 3.52 7.29 5.29 1.86 1.36 3.76 2.65 5.57 4.08 2.07 1.64 4 3.47 6.1 5.06 2.11 1.6 4.38 2.99 6.56 4.49.87.6 1.77 1.19 2.55 1.9 1.59 1.47 3.37 2.57 5.46 3.17.5.14 1.03.36 1.42.7 2.46 2.12 5.5 3.18 8.32 4.65 3.78 1.96 7.43 4.1 10.74 6.81.68.56 1.37 1.14 2.14 1.54 4.72 2.46 9.03 5.57 13.44 8.53 1.17.79 2.34 1.61 3.57 2.29 5.43 2.97 10.9 5.87 15.91 9.54.59.43 1.65.18 1.82-.45.61-2.19 1.58-4.23 2.04-6.5.91-4.51 1.8-9.02 2.63-13.54.67-3.65 1.31-7.31 2.08-10.94.76-3.63 1.7-7.22 2.48-10.84.45-2.06.77-4.16 1.09-6.25.24-1.59.87-2.03 2.51-1.54.32.1.59.38.88.57 0 0-.09-.1-.09-.1zm-75.88 229.42c-.35.21-.43.12-.22-.27 0 0 .22.11.33.17-.18-.31-.13-.34.15-.1-.09.06-.17.13-.26.19zm120.41-39.89c1.22 1.31 2.49 2.68 4.3 3.58 3.64 1.81 7.17 3.83 10.84 5.58 4.94 2.36 9.92 4.66 14.6 7.54.75.46 1.55.91 2.38 1.15 3.77 1.06 7.13 3.04 10.65 4.65 4.17 1.91 8.29 3.93 12.59 5.56 2.81 1.07 5.71 1.96 8.38 3.3 3.8 1.91 7.71 3.55 11.59 5.26 1.13.5 2.23 1.07 3.35 1.59 7.86 3.65 15.68 7.39 23.6 10.92 4.52 2.01 9.12 3.85 13.53 6.11.76.39 1.69.45 2.54.63.14.03.39-.07.45-.18.15-.29.36-.65.29-.92-.12-.5-.33-1.04-.67-1.41-2.5-2.74-5-5.43-6.46-8.97-.79-1.92-2.69-3.26-3.33-5.37-.14-.46-.63-.84-1-1.21-3.16-3.11-5.82-6.6-8.24-10.31-1.83-2.81-3.83-5.52-5.85-8.2-3.72-4.94-7.36-9.94-10.75-15.12-.97-1.48-2.04-2.89-3.13-4.29-4.35-5.57-8.71-11.14-13.09-16.69-4.93-6.25-9.43-12.83-14.67-18.83-1.63-1.86-3.37-3.62-5.09-5.4-.22-.23-.63-.29-.95-.43-.35 0-.73-.08-1.05.01-4.41 1.28-9 1.89-13.33 3.48-1.51.55-3.04.9-4.64 1.03-2.13.17-4.18.72-6.11 1.65-1.11.54-2.17 1.19-3.29 1.73-1.1.53-2.25.97-3.28 1.42-.2.44-.45.74-.48 1.07-.24 2.72-1.36 5.04-2.82 7.33-2.84 4.48-5.53 9.06-7.14 14.19-.37 1.17-1.05 2.24-1.55 3.37-.86 1.93-1.88 3.8-2.18 6.17z"/><path d="m192.76 80.26c-.98-2.32-.51-4.89-1.24-7.27-.13-.44.18-1.02.32-1.53 2.3-8.52 4.96-16.94 7.05-25.52 1.89-7.77 5.1-15.04 9.09-21.97.99-1.73 2.48-2.96 3.74-4.42-.05-.34.02-.76-.16-1-.55-.75-.94-1.5-.63-2.44.44-1.34.87-2.69 1.34-4.03 1.13-3.16 2.24-6.33 2.56-9.71.05-.51.29-1.02.49-1.51.21-.51.58-.87 1.16-.87.98 0 2 .69 2.02 1.36.01.52.03 1.05 0 1.58-.05.88-.24 1.77-.19 2.64.23 3.88.5 7.76.81 11.64.08 1.04.38 2.07.54 3.11.43 2.61.93 5.2.89 7.89-.04 2.29.13 4.61.49 6.87.64 4.01 1.06 8.05 1.83 12.05.8 4.16 1.2 8.39 1.29 12.65.06 2.81.1 5.59 1.05 8.37.72 2.12.67 4.52.84 6.81.34 4.58.77 9.15 1.38 13.71.54 4.03 1.11 8.05 1.65 12.07.19 1.4.47 2.81.47 4.21 0 3.55.49 7.04.99 10.55.7 4.9 1.21 9.82 1.81 14.73.22 1.75.49 3.5.75 5.24.08.52.29 1.04.29 1.56 0 5.52 1.6 10.85 1.86 16.33.18 3.74 1.37 7.28 2.16 10.89.64 2.94 1.46 5.82 1.78 8.83.16 1.56 1.25 2.5 2.7 2.95.67.21 1.38.32 2.08.37 3.35.27 6.64.87 9.95 1.42 2.93.49 5.91.81 8.85 1.33 1.65.29 3.15-.32 4.29-1.6.47-.53.83-1.14 1.28-1.69 1.11-1.37 2.16-2.8 3.38-4.08 2.94-3.08 5.56-6.4 7.68-10.09 1.5-2.61 3.01-5.19 5.02-7.46 1.04-1.18 1.97-2.51 2.75-3.89 1.85-3.27 4.35-6 6.9-8.71 1.94-2.06 3.93-4.07 5.48-6.47.47-.72 1.19-1.28 1.79-1.91.24-.25.64-.47.71-.76.8-3.61 3.87-5.84 5.4-9.02.37-.76.99-1.61 1.71-1.95 1.2-.57 1.77-1.33 2.3-2.56 1.2-2.77 3.09-5.14 5.21-7.29.6-.61 1.47-.95 2.23-1.38.37-.21.98.36 1 .92.03.73-.12 1.4-.66 1.97-.08.09-.13.16-.19.24.09-.08.19-.17.28-.25-1.35 1.15-2.37 2.58-3.51 3.9-1.08 1.25-1.65 2.68-2.48 4-1.99 3.13-4.16 6.16-6.26 9.22-1 1.46-1.99 2.92-3.06 4.33-1.8 2.37-3.09 5.14-5.45 7.09-3.3 4.61-7.26 8.68-10.77 13.11-1.41 1.79-2.54 3.85-3.54 5.91-1.64 3.37-3.97 6.23-6.27 9.12-1.43 1.79-2.8 3.61-4.51 5.19-1.39 1.28-2.21 3.12-2.75 4.99-.03.12.12.29.25.58 3.65.02 7.27.73 10.91 1.42 1.89.36 3.75.99 5.76.61.82-.16 1.77.08 2.61.32 2.06.59 4.17.75 6.29.87 1.06.06 2.11.15 3.07.72.29.17.69.34 1 .29 3.21-.55 6.3.64 9.5.66 4.06.02 8.11.63 12.16 1.02 1.05.1 2.1.34 3.14.54 2.6.5 5 1.68 7.69 1.93 2.44.23 4.94.7 7.24 1.53 3.76 1.36 7.55 1.68 11.47 1.25.35-.04.74-.12 1.06-.03 4.13 1.24 8.44.47 12.63 1.14 4.52.73 9.16.62 13.69 1.49 1.03.2 2.12.04 3.18.04 1.42 0 2.83.02 4.25.02 2.31 0 4.52.42 6.78 1 3.09.79 6.12 1.72 9.12 2.79.49.17.99.46 1.33.84.33.37.68.95.62 1.38-.06.44-.58 1.09-.97 1.15-3.89.54-7.39 2.36-11.14 3.34-3.75.97-7.53 1.79-11.32 2.61-.82.18-1.54.92-2.46.52-.12-.05-.26-.36-.25-.37 1.54-1.21 3.28-2.01 5.17-2.51 2.74-.72 5.49-1.41 8.22-2.18.48-.13.89-.53 1.3-.85.09-.07.09-.31.08-.47-.01-.15-.06-.38-.16-.43-.32-.14-.67-.29-1.01-.3-3-.09-5.99-.42-9.01-.23-2.46.16-4.95-.09-7.41-.26-3-.21-5.99-.4-9-.31-3.36.09-6.72-.11-10.08-.22-4.07-.14-8.14-.38-12.2-.45-2.69-.05-5.29-.52-7.84-1.27-9.74-2.86-19.71-4.22-29.8-5.02-4.4-.35-8.8-.71-13.16-1.63-3.96-.83-8.03-1.36-12.13-1.18-.88.04-1.78 0-2.65-.15-6.95-1.3-14.08-1.6-20.86-3.9-1.66-.56-3.47-.7-5.21-1-4.35-.77-8.7-1.54-13.06-2.26-1.51-.25-2.57-1.09-3.48-2.23-1.59-1.98-2.79-4.21-2.83-6.74-.07-4.3-1.24-8.39-1.94-12.58-.27-1.57-.62-3.13-.75-4.71-.41-4.76-.91-9.5-1.67-14.21-.14-.87-.14-1.76-.18-2.65-.13-3.01-.41-6-1.05-8.95-.57-2.6-.78-5.25-.71-7.92.03-1.23-.12-2.46-.23-3.69-.34-3.7-.7-7.4-1.06-11.11-.14-1.43-.07-2.84.45-4.19.53-1.37.82-2.72-.2-4.02-.1-.13-.16-.33-.17-.5-.22-4.76-1.64-9.43-1.3-14.22.12-1.76 0-3.51.06-5.26.04-1.03-.28-2.08-.49-3.1-.31-1.55-.88-3.08-.96-4.64-.11-2.13.06-4.26-1.34-6.09 0-2.43-1.41-4.74-.59-7.28.26-.79.19-1.8-.05-2.62-.74-2.54-.84-5.19-1.59-7.76-1.08-3.71-1.59-7.59-2.3-11.41-.09-.5 0-1.05.06-1.58.05-.53.32-1.08.22-1.56-.79-4.02-.22-8.13-.79-12.15-.27-1.9-.69-3.78-1.06-5.67-.02-.12-.23-.26-.36-.28-.16-.02-.43.04-.49.15-.4.77-.91 1.53-1.11 2.35-.75 3.12-1.97 6.04-3.41 8.9-1.11 2.21-2.07 4.5-3.11 6.75-2.82 6.14-4.71 12.59-6.5 19.08-1.13 4.09-2.13 8.22-3.83 12.14-.41.95-.41 2.06-.7 3.06-1.11 3.91-2.27 7.81-3.39 11.74.02.02.11.12.11.12zm2.21-14.49c-.08.11-.22.22-.23.34 0 .12.12.25.19.37.08-.11.22-.22.23-.34 0-.12-.12-.25-.19-.38z"/><path d="m72.11 329.51c-.77 1.16-1.54 2.32-2.25 3.39.21.49.33.8.48 1.09.58 1.1.53 1.62-.32 2.26-.38.29-.94.34-1.42.5 0 0 .15.12.15.12-.04-.33.03-.74-.15-.97-.12-.15-.6-.14-.86-.05-.3.11-.59.35-.81.59-1.13 1.23-2.24 2.48-3.36 3.72l.12.12c.08-1.42.41-2.73 1.14-4.01 1.83-3.23 3.76-6.37 6.09-9.27.99-1.23 1.79-2.62 2.54-4.01 2.1-3.9 4.55-7.56 7.29-11.03 1.53-1.94 2.95-3.95 4.18-6.11 1.13-1.99 2.39-3.94 3.85-5.7 1.25-1.51 2.27-3.13 3.26-4.8 4.12-7 8-14.13 11.79-21.31 2.39-4.52 5.02-8.92 7.47-13.41 1.11-2.03 2.46-3.86 3.93-5.62.15-.17.59-.14.89-.12.1 0 .28.29.26.42-.24 1.2-.49 2.41-.78 3.6-.22.89-.8 1.52-1.56 2.04-.21.15-.35.82-.21.96 1.43 1.47.69 2.85-.07 4.26-.41.77-.82 1.55-1.1 2.37-.53 1.53-1.53 2.24-3.17 2.23-.89 0-1.67.83-1.67 1.64 0 .85.18 1.71.15 2.56-.02.69-.29 1.37-.37 2.06-.19 1.6-.66 3.06-1.83 4.25-.62.63-1.11 1.38-1.76 1.97-.36.33-.91.44-1.37.65q-.94.44-.74 2.11l-.1-.11c.15.48.35.95.43 1.44.15.93-.16 1.7-1.01 2.18-.44.25-.93.43-1.39.64 0 0 .04.12.04.12q-.64-.74-1.28 0l.03-.11c-.8.5-.93 1.33-1.07 2.15 0 0 .16-.06.16-.06-1.83.45-2.85 1.58-3.02 3.48-.03.32-.2.63-.3.95l.12-.13c-1.57 1.16-2.81 2.6-3.73 4.31-1.32 2.45-2.81 4.78-4.39 7.08-1.47 2.13-2.61 4.46-4.43 6.38-.8.84-1.18 2.09-1.74 3.15.4.16.43.24.1.23 0-.12.01-.24.02-.36.95.66 1.52 1.44.9 2.64-.08.15-.18.3-.24.46-.5 1.27-1.28 2.05-2.79 1.8-.24-.04-.64.15-.78.35-.17.25.19.39.55.61.81.49.99 1.11.58 1.67-.62.84-1.26 1.66-1.97 2.42-.43.46-.87.29-1.32-.16-1-.99-1.25-.93-1.84.27-.15.3-.17.67-.24 1.01l.13-.04c-.41.41-.83.83-1.24 1.24 0 0 .08-.14.08-.14z"/><path d="m331.37 88.22c-1.04 1.19-2.26 2.12-3.78 2.62-1.69.56-3.15 1.42-4.24 2.9-1.24 1.68-3.39 1.65-5.07 2.53-.07.04-.37-.15-.37-.24-.01-.31-.05-.73.12-.92.48-.5 1.06-.9 1.61-1.33 1.22-.95 2.92-1.29 3.67-2.85 1.85-1.38 3.93-2.28 6.14-2.82.63-.15 1.36.15 2.05.24l-.13-.14z"/><path d="m302.47 102.85c-.07.32-.04.8-.23.92-2.86 1.85-5.8 3.57-9.12 4.5-.32.09-.68.01-1.02 0l.11.12c2.2-2.66 5.14-4.08 8.36-5.01.67-.19 1.37-.27 2.05-.41l-.16-.14z"/><path d="m73.87 343.02c.1.72.11 1.53-.47 1.96-2.24 1.66-4.46 3.39-7.07 4.48-.23.1-.73-.07-.9-.28-.13-.16-.04-.68.14-.86.6-.62 1.2-1.39 1.96-1.69 2.29-.91 4.24-2.44 6.46-3.47l-.13-.13z"/><path d="m343.91 82.44c-.1-.06-.33-.12-.37-.24-.09-.3-.13-.62-.11-.93 0-.15.15-.34.29-.42 1.64-.94 3.27-1.91 5.17-2.23.11-.02.31.17.37.31.06.15.06.41-.03.51-1.2 1.3-2.64 2.26-4.23 2.99-.29.13-.68.02-1.08.02z"/><path d="m91.4 327.65c-.23.47-.3.91 0 1.43.38.67.18 1.33-.29 1.91-1.11 1.36-2.48 2.4-4.1 3.07-.2.08-.58-.2-.82-.38-.08-.06-.05-.35.01-.5.44-.99 1.26-1.62 2.13-2.19 1.01-.66 2.09-1.23 3.05-1.95.41-.31.34-.91.03-1.38z"/><path d="m73.99 343.15c.93-.91 1.96-1.72 2.48-2.98 0 0-.19.14-.19.14.41-.41.82-.83 1.23-1.24l-.17.14c1.22-.01 2.25-.61 3.32-1.07 0 0-.18-.12-.19-.12 0 .51.2 1.28-.05 1.48-1.11.86-1.8 2.07-2.76 3.04-1.1 1.12-2.39 1.26-3.79.49-.01-.01.12.12.12.12z"/><path d="m119.88 248.5c.08 1.47-.67 2.56-1.67 3.53-.09.08-.33.08-.46.02s-.32-.25-.3-.36c.18-1.4 1.02-2.48 1.79-3.6.05-.07.3-.1.38-.04.12.09.17.28.26.44z"/><path d="m302.62 103c.08-.15.17-.29.23-.45.39-1.04.93-1.8 2.24-1.43.48.14 1 .14 1.5.21 0 .06.06.22.03.24-.88.45-1.74.95-2.66 1.3-.43.16-.98.02-1.49 0 0 0 .15.13.15.13z"/><path d="m311.79 98.68c-.12-.14-.36-.35-.33-.38.73-1.09 1.81-1.53 3.08-1.56.13 0 .3.16.4.29.07.09.09.33.03.38-.91.8-1.81 1.63-3.18 1.28z"/><path d="m81.56 336.04c.64-.15 1.28-.27 1.9-.47.39-.12.64-.09.86.21s-.05 1.05-.51 1.2c-1.11.37-2.23.7-3.34 1.04 0 0 .18.12.18.12.58-.65 1.36-1.21 1.11-2.27l-.21.16z"/><path d="m340.49 83.93c-1.06.52-2.11 1.04-3.18 1.54-.01 0-.24-.34-.21-.38.91-1 2.26-.47 3.34-.93z"/><path d="m373.56 209.29c-.4.1-.87.23-1.34.3-.12.02-.38-.16-.38-.21.04-.26.1-.7.24-.74.45-.13.94-.13 1.41-.13.12 0 .32.18.34.3s-.15.27-.28.48z"/><path d="m98.62 323.2c-.62 1.48-1.42 2.78-3.16 3.13l.11.14c0-.77 0-1.53 0-2.3 0 0-.17.19-.17.19.73-.1 1.14-.5 1.24-1.24 0 0-.21.15-.21.15.78 0 1.56 0 2.33.01l-.16-.09z"/><path d="m95.46 326.33c-.64 2.09-1.18 2.39-3.13 1.72-.31-.11-.61-.26-.92-.39q1.6.15 2.03-1.39s-.17.2-.17.2h2.3z"/><path d="m324.36 104.51c-.01-.16-.07-.33-.02-.47.05-.15.2-.38.3-.37.44.03.5.3.14.66-.1.1-.27.12-.41.18z"/><path d="m327.92 100.82c-.19.24-.37.5-.59.71-.06.05-.33-.04-.41-.14s-.12-.37-.06-.43c.23-.21.51-.37.79-.52.02 0 .18.25.28.38z"/><path d="m331.5 88.35c.31-.37.58-.8.95-1.1.18-.14.55-.05.83-.07-.01.15.03.33-.05.45-.08.13-.25.23-.4.27-.49.12-.98.21-1.47.31 0 0 .13.14.13.14z"/><path d="m95.27 298.96c-.55-.7-.78-1.51-.78-2.39 0 0-.12.13-.12.13.73-.41 1.29-1.16 2.25-1.08l-.13-.11c.16 1.41-.5 2.51-1.33 3.55l.11-.09z"/><path d="m84.04 316.87c-.09.63-.56 1.08-.99.96s-.66-.83-.34-1.33c.15-.23.59-.46.83-.4.22.05.33.5.5.77z"/><path d="m101.88 321.02c-.2.25-.35.59-.6.74-.86.51-1.77.96-2.65 1.44 0 0 .16.09.16.09l-.05-2.29-.11.1c1.11 0 2.22.02 3.33.03l-.07-.11z"/><path d="m62.48 341.22c.18 1.05-.17 1.96-.84 2.7-.27.3-.83.34-1.26.5 0 0 .12.11.12.11-.14-1.9.05-2.2 2.09-3.2 0 0-.11-.11-.11-.11z"/><path d="m73.14 328.44c.23.45.48.9.68 1.37.05.11-.06.42-.15.44-.3.07-.68.17-.92.05-.28-.15-.44-.52-.65-.79 0 0-.08.14-.08.14.72-.11 1.11-.54 1.24-1.24l-.13.04z"/><path d="m68.6 336.75c.1.44.28.89.28 1.33 0 .19-.39.38-.6.57-.14-.25-.45-.59-.37-.73.2-.39.56-.69.85-1.04 0 0-.16-.13-.16-.13z"/><path d="m285.86 111.54c-.11-.04-.22-.09-.33-.13.08-.11.15-.31.23-.31.45 0 .48.17.1.44z"/><path d="m92.66 303.43c.12.02.3 0 .35.07.07.11.11.31.06.42-.24.44-.46.4-.56-.09-.02-.12.1-.26.15-.39z"/><path d="m97.54 292.34c.2.23.44.44.58.71.35.65.18 1.13-.54 1.38l.12.13c0-.76 0-1.52 0-2.27l-.16.06z"/><path d="m63.57 340.16c.02.74-.3 1.14-1.08 1.06 0 0 .11.11.11.11-.05-.78.3-1.14 1.09-1.05 0 0-.12-.12-.12-.12z"/><path d="m84.17 314.21.36-.14-.04.35z"/><path d="m95.16 299.06.31-.19s-.18.05-.19.07-.12.12-.12.12z"/><path d="m97.58 294.43c.01.74-.38 1.06-1.09 1.08 0 0 .13.11.13.11.03-.68.36-1.07 1.07-1.07l-.12-.13z"/><path d="m99.82 290.18c-.4 0-.8 0-1.2.01 0 0-.03.12-.03.12h1.28l-.04-.12z"/><path d="m101.9 286.03c-.02-.41.12-.55.41-.4.02 0-.04.27-.1.29-.12.04-.27 0-.41 0 0 0 .1.11.1.11z"/><path d="m292.09 108.29s.13.13.12.13c0 0-.12-.13-.12-.13z"/><path d="m340.44 84.16c-.06-.1-.11-.2-.17-.3-.16.3-.09.33.21.08 0 0-.05.22-.05.22z"/></svg>
