<svg id="img" viewBox="0 0 259.68 342.88" xmlns="http://www.w3.org/2000/svg"><path d="m189.31 251.77c-1.58.35-2.77-.15-3.85-1.28-2.43-2.56-5.03-4.95-7.2-7.75-.75-.97-1.68-1.8-2.54-2.68-.98-1.01-2.11-1.92-2.95-3.05-2.33-3.15-5.29-5.67-8.26-8.13-1.8-1.5-3.35-3.07-4.41-5.17-.3-.59-.87-1.12-1.45-1.47-1.55-.94-2.68-2.23-3.8-3.63-1.54-1.92-3.33-3.63-5.02-5.42-.24-.26-.6-.42-.79-.71-1.46-2.22-3.27-4.07-5.49-5.56-.57-.38-1.01-.98-1.46-1.51-.34-.4-.5-1.02-.91-1.28-2.44-1.55-3.98-3.96-5.85-6.04-1.88-2.09-3.84-4.11-5.69-6.22-.81-.92-1.45-1.97-2.16-2.97-.27-.38.14-1.02.7-1.16 1.06-.28 2.08-.39 3 .4.67.57 1.4 1.08 2.05 1.67 3.27 2.96 6.59 5.88 9.77 8.95 1.77 1.71 3.18 3.79 4.96 5.5s3.76 3.17 5.27 5.18c1.16 1.54 2.68 2.81 4.07 4.17 1.26 1.23 2.67 2.33 3.84 3.63 4.25 4.75 9.28 8.68 13.76 13.2 3.6 3.63 7.5 6.96 10.55 11.13 1.24 1.7 2.85 3.13 4.28 4.7.97 1.06 1.63 2.28 1.93 3.71.19.94-.35 1.73-1.35 1.79-.35.02-.71 0-1.01 0z"/><path d="m102.94 185.75c-2.34-.24-3.93-.36-5.51-.57-1.81-.23-3.37-1.07-4.7-2.28-.51-.47-1.05-1.04-1.27-1.67-1.09-3.16-2.34-6.28-1.69-9.78.45-2.43.83-4.77 2.06-7.04 1.67-3.09 3.39-6.17 4.49-9.56.74-2.27 2.47-3.92 4.76-4.68 3.77-1.25 7.63-1.39 11.5-.38.5.13 1.02.34 1.45.64 2.64 1.82 5.04 3.89 6.84 6.58 1.11 1.67 1.62 3.53 1.77 5.49.18 2.3.11 4.59-.3 6.87-.19 1.04-.37 2.09-.38 3.14-.06 3.08-1.68 5.39-3.8 7.31-1.56 1.41-3.44 2.47-5.18 3.68-3.53 1.02-6.89 2.88-10.02 2.25zm.24-4.77c1-.09 2.44-.06 3.78-.39 2.06-.5 3.96-1.47 5.74-2.63 2.14-1.39 3.59-3.3 4.18-5.85.68-2.95.81-5.94.57-8.93-.08-1-.55-2.07-1.13-2.9-1.33-1.9-3.26-3.18-5.22-4.37-.43-.26-1-.31-1.52-.38-2.32-.31-4.56-.12-6.64 1.1-1.52.9-3.14 1.56-4.88 1.95-.64.14-1.31.59-1.75 1.09-1.65 1.87-2.84 3.97-3.27 6.51-.39 2.28-.51 4.55-.42 6.84.06 1.59.5 3.11 1.33 4.52 1.06 1.8 2.53 2.92 4.61 3.13 1.4.14 2.81.19 4.62.31z"/><path d="m128.05 150.27c-.24-.3-.7-.62-.8-1.03-.11-.47-.01-1.08.21-1.52 1.38-2.69 3.24-5.05 5.25-7.29 1.06-1.18 2.18-2.32 3.36-3.39 4.57-4.17 9.14-8.34 13.76-12.45 2.91-2.59 5.71-5.28 8.27-8.21 4.07-4.67 8.39-9.08 13.33-12.86 1.26-.96 2.34-2.15 3.51-3.22.92-.83 1.88-1.66 3.12-1.93.45-.1 1.16.01 1.43.32.81.91 1.48 1.94 2.15 2.96.42.65.34 1.39-.12 1.98-.86 1.11-1.7 2.27-2.73 3.21-1.95 1.79-3.98 3.51-6.08 5.12-1.97 1.51-3.82 3.13-5.57 4.88-4.5 4.5-9.24 8.73-14.22 12.71-6.2 4.97-12.2 10.21-18.22 15.4-1.86 1.6-3.97 2.94-5.48 4.94-.17.22-.64.21-1.17.37z"/><path d="m111.16 36.74c.18 5.93-.14 9.99-.64 14.04-.21 1.75-.27 3.53-.32 5.3-.16 6.02-.28 12.03-.43 18.05 0 .35-.02.74-.17 1.03-.15.28-.47.57-.76.64-.28.07-.74-.04-.91-.25-.32-.39-.77-.95-.69-1.35.45-2.5-.31-4.9-.68-7.28-.86-5.64-.72-11.28-.52-16.93.06-1.76.2-3.57-.07-5.29-.45-2.82-.32-5.65-.49-8.47-.1-1.59-.15-3.18-.18-4.77-.02-1.06-.04-2.12.04-3.18.29-3.88.49-7.76.81-11.64.26-3.17.68-6.33.91-9.5.19-2.58 1.41-4.71 2.93-6.7.34-.45 1.36-.58 1.95-.28 1.33.68 1.74 1.29 1.65 2.4-.2 2.65-.37 5.29-.58 7.94-.3 3.88-.66 7.76-.93 11.65-.38 5.47-.7 10.94-.93 14.58z"/><path d="m35.73 237.08c-.57-1.43.11-2.4.58-3.57.83-2.05 2.12-3.63 3.61-5.15 3.71-3.79 7.33-7.67 11.09-11.41 2.63-2.62 5.39-5.11 8.19-7.55 2.39-2.08 4.62-4.34 7.47-5.91 1.67-.92 2.97-2.49 4.49-3.7 2.35-1.88 4.67-3.8 7.55-4.86.61-.22 1.44.36 1.44 1.1 0 .52-.05 1.05-.2 1.54-.09.32-.34.63-.59.86-3.25 2.98-6 6.45-9.41 9.3-2.55 2.13-4.76 4.69-7.11 7.06-2.24 2.26-4.5 4.5-6.7 6.8-1.58 1.66-3.15 3.34-4.59 5.12-3.24 4-8.29 8.84-12.29 11.57-.58.39-1.23.69-1.86 1s-1.63-.13-1.68-.75c-.04-.53 0-1.06 0-1.44z"/><path d="m46.09 116.52c-.6-.33-1.36-.52-1.78-1-1.4-1.6-3.04-2.93-4.64-4.31-1.33-1.14-2.42-2.55-3.67-3.78-1.37-1.35-2.98-2.51-4.18-3.99-1.21-1.5-2.13-3.24-3.69-4.45-1.52-2.63-3.76-4.62-5.95-6.65-1.27-1.17-1.59-2.69-1.48-4.35.05-.82 1.09-1.57 1.91-1.38 1.22.27 2.41.62 3.29 1.57 1.08 1.17 2.22 2.29 3.15 3.58 4.76 6.62 10.41 12.44 16.13 18.2 1.36 1.37 2.61 2.82 4.26 3.9 1.16.76 2.17 1.83 3.05 2.92 3.21 3.99 6.85 7.58 10.3 11.34.73.79 1.46 1.5 2.38 2.05.6.35 1.15.82 1.63 1.32 3.18 3.3 6.44 6.53 9.46 9.96 1.49 1.7 2.53 3.79 3.76 5.71.08.12.06.45-.01.49-.28.15-.66.39-.9.3-.98-.37-2.05-.68-2.83-1.32-1.5-1.22-2.82-2.67-4.24-4-1.13-1.06-1.34-2.85-3.08-3.5-1.32-.49-1.4-2.47-2.94-2.9-.59-.87-1.22-1.71-1.76-2.61-.71-1.19-2.43-.73-3.04-1.82-.58-1.03-.53-2.34-1.55-3.24-1.18-1.04-2.12-2.34-3.67-2.96-1.17-.47-2.1-1.21-2.48-2.54-.13-.46-.58-1-1.01-1.17-2.74-1.09-4.45-3.42-6.56-5.25 0 .01.33.1.33.1l-.18-.25z"/><path d="m20.02 168.76c3.54.39 7.88-.57 12.23-1.28 2.63-.43 5.21-.99 7.87-.4.17.04.36.1.52.07 4.22-.91 8.46.05 12.69-.13 4.24-.18 8.48-.2 12.72-.42 1.8-.09 3.53.09 5.23.61.48.15.93.5 1.31.85.33.3.27.72-.1.87-.8.34-1.61.77-2.45.86-5.09.56-10.14 1.39-15.27 1.71-4.59.28-9.17.55-13.77.55-4.62 0-9.12 1.01-13.64 1.79-2.95.51-5.89 1.01-8.92.84-2.12-.12-4.23-.16-6.24-.99-2.02-.83-4.18-.58-6.29-.68-.66-.03-1.33.39-2.01.55-.85.19-1.72.38-2.59.43-.4.03-.62-.41-.47-.77.21-.47.42-1.03.81-1.31.7-.51 1.51-1.14 2.31-1.19 2.68-.15 5.17-1.06 7.74-1.65 2.45-.56 4.92-.46 8.32-.32z"/><path d="m106.01 208.71c.34 7.82.66 13.98.84 20.15.06 2.11-.07 4.26-.45 6.33-.42 2.3-.39 4.59-.31 6.86.1 2.99.4 5.99.78 8.96.57 4.41.16 8.82.27 13.22.04 1.66-.67 3.08-1.52 4.44-.21.33-1.18.33-1.38-.05-.48-.93-1.16-1.83-1.35-2.82-.44-2.24-.89-4.54-.85-6.8.06-3.37-.2-6.71-.32-10.06-.11-3.17-.27-6.33.61-9.47.56-2.01.14-4.23.94-6.25.12-.3.06-.71 0-1.05-.55-2.66-.13-5.26.26-7.89.28-1.91.29-3.88.23-5.82-.15-4.41-.44-8.81.42-13.2.19-.98-.13-2.08-.35-3.1-.26-1.25-.31-2.44.31-3.59.07-.13.22-.29.34-.29.16 0 .36.08.48.2.23.24.48.51.61.81.14.32.22.69.2 1.03-.23 3.36.05 6.7.25 8.39z"/><path d="m230.89 162.03c-2.95 1.3-6.04 1.82-9.27 1.76-3.71-.07-7.43-.06-11.14.02-2.29.05-4.59.19-6.87.45-2.31.26-4.56.42-6.82-.33-.8-.26-1.77-.34-2.59-.16-5.73 1.3-11.59 1.15-17.39 1.61-4.22.34-8.47.28-12.7.33-1.4.02-2.86.13-4.17-.54-1.44-.73-2.7-.42-4 .38-.81.5-1.67.43-2.46-.17-.32-.25-.43-.53-.25-.92.06-.14.15-.28.26-.37.14-.1.32-.2.48-.2 3.01.01 5.95-.42 8.92-.97 2.93-.55 5.97-.67 8.96-.61 3.03.07 5.99-.36 8.96-.69 2.99-.33 5.96-.57 8.98-.31 2.1.18 4.26.21 6.34-.1 4.23-.62 8.48-.27 12.71-.53 1.23-.08 2.48-.05 3.71-.2 2.3-.29 4.59-.18 6.88.04 1.76.17 3.46.58 5.18.92 1.49.29 3.13-.24 4.71-.29.59-.02 1.48-.23 1.56.89z"/><path d="m104.59 128.93c.07-1.33.1-2.75.23-4.16.25-2.84.18-5.62-.42-8.44-.63-2.95-.62-5.97.34-8.92.39-1.2 1.23-1.65 2.37-1.73.53-.04 1.06-.04 1.58 0 .59.04 1.35.84 1.42 1.41.04.35.14.7.13 1.05-.1 3.36-.12 6.73-.35 10.08-.17 2.46-.53 4.93-.99 7.36-.73 3.84-1.19 7.69-1.06 11.6.02.53.06 1.11-.15 1.57-.19.43-.64.8-1.06 1.04-.33.19-1.11-.38-1.22-.76-.05-.16-.2-.31-.21-.47-.21-3.18-.4-6.35-.6-9.62z"/><path d="m104.43 319.74c-.34.62-.66 1.25-.33 1.99.21.48.64.95.63 1.42-.08 4.78 1.25 9.41 1.35 14.16.02 1.05.11 2.13-.07 3.16-.11.63-.57 1.26-1.02 1.77-.62.7-1.75.82-2.4.39-.64-.42-.92-1.05-.92-1.79.02-4.05-.07-8.11.13-12.16.12-2.62.64-5.22 1.03-7.82.13-.86.95-.91 1.61-1.11z"/><path d="m201.84 76.92c.27.02.48-.03.6.05 1.3.89 2.43 1.96 3.01 3.48.11.28.04.74-.13.99-.38.58-.79 1.22-1.35 1.59-2.63 1.72-5.19 3.57-8.18 4.68-.81.3-1.78.06-2.36-.6-.45-.51-.55-1.48-.2-1.95.31-.42.58-.88.95-1.25 2.11-2.1 4.23-4.19 6.38-6.25.36-.35.9-.52 1.28-.73z"/><path d="m3.38 272.43c-.68-.21-1.18-.35-1.67-.53-.56-.21-.98-1.33-.67-1.77.3-.42.58-.87.94-1.24 2.97-3.01 6.39-5.43 9.99-7.62.94-.57 1.94-.81 3.01-.61.26.05.51.33.69.57.07.09-.01.34-.07.5s-.14.35-.27.45c-2.47 1.98-4.06 4.76-6.36 6.9-1.17 1.09-2.4 2.04-3.77 2.81-.58.33-1.3.4-1.83.55z"/><path d="m210.79 272.35c-.03.12-.05.3-.1.47-.23.73-1.14 1.17-1.64.8-3.4-2.53-6.96-4.89-9.18-8.65-.43-.73-.69-1.62-.79-2.47-.05-.38.41-.91.77-1.23.19-.16.66-.03.99 0 .17.02.34.11.48.21 3.39 2.3 6.3 5.12 8.84 8.32.59.74.71 1.59.63 2.55z"/><path d="m8.65 74.47c-.09.13-.15.37-.28.4-.67.2-1.51.16-1.99.56-1.26 1.06-2.27.61-3.26-.27-.65-.58-1.21-1.27-1.81-1.91-1.33-1.42-1.82-2.94-.7-4.74.17-.27.06-.69.17-1.01.3-.93 1.94-1.39 2.67-.78.27.23.6.4.79.68 1.48 2.17 2.94 4.35 4.39 6.54.08.12.01.33.01.52z"/><path d="m259.43 160.04c-1.1.43-2.12.64-3.13.05-.91-.53-1.84-1.05-2.71-1.64-.16-.11-.2-.75-.08-.82 1.67-1.1 3.5-1.62 5.5-1.32.26.04.68.43.67.65-.02 1.04-.16 2.08-.25 3.08z"/><path d="m104.44 319.76c-1.27-2.15-2.1-4.39-1.46-6.93.06-.25.37-.45.6-.64.03-.02.33.17.37.3.7 2.38.18 4.85.49 7.26v.02z"/><path d="m149.66 164.91c-.3.13-.6.37-.9.38-.63.02-1.25-.67-.93-.92.25-.2.62-.34.93-.33.31 0 .63.21.91.38.07.04 0 .32-.01.49z"/><path d="m104.53 195.87c-.05.12-.07.34-.14.36-.3.09-.45-.1-.37-.48.02-.09.19-.15.29-.22.08.11.15.23.23.34z"/></svg>
