<svg id="img" fill="currentColor" viewBox="0 0 84.83 131.81" xmlns="http://www.w3.org/2000/svg"><path d="m38.43 86.64c-6.58 8.56-12.28 17.69-16.52 27.76-.37-.13-.75-.26-1.12-.39.24-1.64.12-3.45.79-4.9 2.87-6.18 5.95-12.26 8.99-18.37.77-1.54 1.67-3.01 2.93-5.25-4.08-.45-7.38-.86-10.69-1.16-3.99-.35-7.99-.84-11.99-.83-3.49 0-6.98.62-10.55.97-.74-1.43.21-2.39 1.32-2.63 3-.67 6.07-1.47 9.1-1.43 7.12.11 14.22.75 21.34 1.01 2 .07 4.22.08 5.63-2.22-1.35-3.48-4.01-6.06-6.45-8.81-6.31-7.1-12.63-14.2-18.86-21.37-1.43-1.65-2.54-3.59-3.8-5.39l.72-.6c4.67 5.2 9.17 10.59 14.07 15.56 4.88 4.94 10.18 9.47 15.38 14.25.1-3.57.15-7.62.36-11.66.21-4.15.57-8.29.9-12.44.32-4.14.61-8.29 1.04-12.42.41-3.99 1.1-7.95 1.46-11.93.37-4.13.46-8.29.76-12.43.29-3.98-.84-8.13.78-11.96h1.02c.38 3.73 1.11 7.47 1.07 11.2-.08 6.67-.66 13.33-.98 19.99-.54 11.27-1.04 22.54-1.52 33.81-.03.7.23 1.4.39 2.33 2.13-.42 2.52-2.15 3.29-3.47 3.67-6.28 7.31-12.58 10.97-18.87.43-.74.93-1.45 1.99-1.97-.15.7-.16 1.48-.48 2.1-4.55 9-9.14 17.98-13.71 26.98-1.04 2.06-2.76 3.94-1.9 7.07 4.32 0 8.7.12 13.07-.03 4.59-.16 9.19-.5 13.77-.89 4.35-.38 8.67-1.31 13.84-.31-.98.81-1.34 1.35-1.76 1.41-10.12 1.51-20.11 3.92-30.42 4.03-1.54.02-3.07.56-5.65 1.07 8.09 8.37 15.18 16.34 20.75 25.56-8.18-6.88-14.7-15.42-23.63-23.03-.67 15.41-.21 29.76.23 44.85-2.67-3.3-3.34-8.2-3.84-22.55-.26-7.47-.75-14.93-1.14-22.4-.31-.07-.63-.15-.94-.22z"/></svg>
